<?xml version="1.0" standalone="no"?>
<!DOCTYPE svg PUBLIC "-//W3C//DTD SVG 1.1//EN" "http://www.w3.org/Graphics/SVG/1.1/DTD/svg11.dtd" >
<!--
2013-9-30: Created.
-->
<svg>
<metadata>
Created by iconfont
</metadata>
<defs>

<font id="iconfont" horiz-adv-x="1024" >
  <font-face
    font-family="iconfont"
    font-weight="500"
    font-stretch="normal"
    units-per-em="1024"
    ascent="896"
    descent="-128"
  />
    <missing-glyph />
    
    <glyph glyph-name="x" unicode="x" horiz-adv-x="1001"
d="M281 543q-27 -1 -53 -1h-83q-18 0 -36.5 -6t-32.5 -18.5t-23 -32t-9 -45.5v-76h912v41q0 16 -0.5 30t-0.5 18q0 13 -5 29t-17 29.5t-31.5 22.5t-49.5 9h-133v-97h-438v97zM955 310v-52q0 -23 0.5 -52t0.5 -58t-10.5 -47.5t-26 -30t-33 -16t-31.5 -4.5q-14 -1 -29.5 -0.5
t-29.5 0.5h-32l-45 128h-439l-44 -128h-29h-34q-20 0 -45 1q-25 0 -41 9.5t-25.5 23t-13.5 29.5t-4 30v167h911zM163 247q-12 0 -21 -8.5t-9 -21.5t9 -21.5t21 -8.5q13 0 22 8.5t9 21.5t-9 21.5t-22 8.5zM316 123q-8 -26 -14 -48q-5 -19 -10.5 -37t-7.5 -25t-3 -15t1 -14.5
t9.5 -10.5t21.5 -4h37h67h81h80h64h36q23 0 34 12t2 38q-5 13 -9.5 30.5t-9.5 34.5q-5 19 -11 39h-368zM336 498v228q0 11 2.5 23t10 21.5t20.5 15.5t34 6h188q31 0 51.5 -14.5t20.5 -52.5v-227h-327z" />
    

    
    <glyph glyph-name="wenbenshuru" unicode="&#58883;" d="M943.104 679.936q-8.192-9.216-15.36-16.384l-12.288-12.288q-6.144-6.144-11.264-10.24l-138.24 139.264q8.192 8.192 20.48 19.456t20.48 17.408q20.48 16.384 44.032 14.336t37.888-9.216q15.36-8.192 34.304-28.672t29.184-43.008q5.12-14.336 6.656-33.792t-15.872-36.864zM551.936 566.272l158.72 158.72 138.24-138.24q-87.04-87.04-158.72-157.696-30.72-29.696-59.904-58.88t-53.248-52.224-39.424-38.4l-18.432-18.432q-7.168-7.168-16.384-14.336t-20.48-12.288-31.232-12.288-41.472-13.824-40.96-12.288-29.696-6.656q-19.456-2.048-20.992 3.584t1.536 25.088q1.024 10.24 5.12 30.208t8.192 40.448 8.704 38.4 7.68 25.088q5.12 11.264 10.752 19.456t15.872 18.432zM899.072 417.792q21.504 0 40.96-10.24t19.456-41.984l0-232.448q0-28.672-10.752-52.736t-29.184-41.984-41.984-27.648-48.128-9.728l-571.392 0q-24.576 0-48.128 10.752t-41.472 29.184-29.184 43.52-11.264 53.76l0 570.368q0 20.48 11.264 42.496t29.184 39.936 40.448 29.696 45.056 11.776l238.592 0q28.672 0 40.448-20.992t11.776-42.496-11.776-41.472-40.448-19.968l-187.392 0q-21.504 0-34.816-14.848t-13.312-36.352l0-481.28q0-20.48 13.312-34.304t34.816-13.824l474.112 0q21.504 0 36.864 13.824t15.36 34.304l0 190.464q0 14.336 6.656 24.576t16.384 16.384 21.504 8.704 23.04 2.56z"  horiz-adv-x="1024" />

    
    <glyph glyph-name="xinxi" unicode="&#58880;" d="M950.381817 386.240017c0 242.11834-196.265012 438.384375-438.382329 438.384375-242.11834 0-438.382329-196.266036-438.382329-438.384375 0-242.12755 196.263989-438.392562 438.382329-438.392562 99.394754 0 190.403514 33.816177 263.941368 89.542362 3.0208 3.427052 5.004991 7.79964 5.004991 12.716626 0 10.729365-8.701173 19.431561-19.431561 19.431561-5.570879 0-10.529821-2.209318-14.068414-5.950526l-0.248663 0c-65.804728-48.423873-146.803507-77.415161-234.767931-77.415161-219.23619 0-396.992663 177.780009-396.992663 397.002896 0 219.260749 177.756473 396.99471 396.992663 396.99471 219.258703 0 396.99164-177.73396 396.99164-396.99471 0-66.952878-15.712867-129.98547-45.01831-185.352475l0-0.326435c-0.541329-1.849114-1.127683-3.65218-1.127683-5.636371 0-10.731412 8.701173-19.431561 19.431561-19.431561 8.363482 0 15.35164 5.363148 18.080797 12.759605l0-0.135076C932.008354 245.389082 950.381817 313.649745 950.381817 386.240017zM539.389302 498.949009c0 12.668531-10.32516 22.981411-23.038716 22.981411-12.670577 0-22.973224-10.31288-22.973224-22.981411l0-328.054571c0-12.670577 10.302647-22.994714 22.995737-22.994714 12.713556 0 23.016203 10.324136 23.016203 22.994714 0 0.044002-0.044002 0.091074-0.044002 0.134053L539.3453 498.790396C539.3453 498.835422 539.389302 498.901936 539.389302 498.949009zM516.395612 619.56918c-12.895705 0-23.333428-10.392698-23.333428-23.299659 0-12.875239 10.437723-23.310915 23.333428-23.310915 12.849656 0 23.309892 10.4367 23.309892 23.310915C539.705504 609.176482 529.244244 619.56918 516.395612 619.56918z"  horiz-adv-x="1024" />

    
    <glyph glyph-name="huanyingmianban" unicode="&#58892;" d="M820.045865 831.048709L204.210985 831.048709c-61.832254 0-111.936395-50.076512-111.936395-112.076588l0-671.536506c0-61.916165 49.992601-112.105241 111.936395-112.105241l615.83488 0c61.832254 0 111.936395 50.076512 111.936395 112.076588l0 671.565159C932.010913 780.8606560000001 881.990682 831.048709 820.045865 831.048709zM876.027877 75.20302800000002c0-46.073338-37.703717-83.889619-84.197634-83.889619L232.454236-8.686590000000024c-46.605457 0-84.197634 37.564547-84.197634 83.889619L148.256602 691.204707c0 46.045709 37.676088 83.86199 84.197634 83.86199l559.376007 0c46.605457 0 84.197634-37.564547 84.197634-83.86199C876.027877 691.204707 876.027877 75.20302800000002 876.027877 75.20302800000002zM540.133757 411.181059L344.19518 411.181059 344.19518 579.128119 288.213167 579.128119 288.213167 187.25198699999999 344.19518 187.25198699999999 344.19518 355.19904699999995 540.133757 355.19904699999995 540.133757 187.25198699999999 596.11577 187.25198699999999 596.11577 579.128119 540.133757 579.128119ZM680.090323 467.163071l55.982012 0 0-279.912108-55.982012 0 0 279.912108ZM680.090323 579.128119l55.982012 0 0-83.97353-55.982012 0 0 83.97353Z"  horiz-adv-x="1024" />

    
    <glyph glyph-name="hulixitong" unicode="&#59070;" d="M998.08 772.288l-744.416 0c-70.944 0-128.512-57.472-128.512-128.416l0-484.16c0-70.944 57.568-128.416 128.512-128.416l744.448 0c70.976 0 128.544 57.472 128.544 128.416l0 484.16c-0.032 70.912-57.6 128.416-128.544 128.416zM1060.064 202.52800000000002c0-58.912-49.984-106.688-111.584-106.688l-646.24 0c-61.6 0-111.584 47.744-111.584 106.688l0 402.208c0 58.912 49.984 106.656 111.584 106.656l646.24 0c61.6 0 111.584-47.744 111.584-106.656l0-402.208zM704.192 645.248l-159.264 0 0-162.304-162.336 0 0-159.264 162.336 0 0-162.304 159.264 0 0 162.304 163.328 0 0 159.264-163.328 0z"  horiz-adv-x="1216" />

    
    <glyph glyph-name="address" unicode="&#58926;" d="M511.998-224c0 0-376.058 293.104-376.058 584.98 0 207.696 168.361 376.059 376.058 376.059 207.698 0 376.060-168.363 376.060-376.059 0-294.735-376.060-584.98-376.060-584.98zM511.998 653.471c-161.546 0-292.49-130.902-292.49-292.491 0-210.635 292.49-473.501 292.49-473.501s292.49 266.13 292.49 473.501c0 161.588-130.941 292.491-292.49 292.491zM511.998 235.626c-69.245 0-125.352 56.149-125.352 125.354 0 69.246 56.107 125.352 125.352 125.352 69.247 0 125.353-56.106 125.353-125.352 0-69.205-56.106-125.354-125.353-125.354zM511.998 402.763c-23.054 0-41.784-18.688-41.784-41.783 0-23.056 18.73-41.785 41.784-41.785 23.056 0 41.784 18.729 41.784 41.785 0 23.096-18.728 41.783-41.784 41.783z"  horiz-adv-x="1024" />

    
    <glyph glyph-name="zonglan" unicode="&#59026;" d="M514.176 232.992 139.584 548.64C-27.072 349.408 5.952 66.016 204.8-101.28c199.168-167.552 496.512-142.016 664.128 57.088 94.656 112.448 127.488 236.672 102.464 370.688L514.176 232.992zM808.704 695.328c-2.24 1.984-4.416 3.968-6.72 5.952C602.816 868.896 305.536 843.296 137.92 644.064 137.6 643.744 137.344 643.424 137.088 643.104l367.488-309.248L808.704 695.328zM868.352 633.568 545.472 300.192l445.184 135.104C971.328 525.152 924.992 588.128 868.352 633.568z"  horiz-adv-x="1024" />

    
    <glyph glyph-name="shujumubanguanli" unicode="&#59345;" d="M1002.602667-85.26933299999996l-30.250667 0L972.352 513.109333c0 11.797333-9.536 21.354667-21.354667 21.354667l-206.634667 0c-11.818667 0-21.333333-9.557333-21.333333-21.354667l0-598.378667-60.544 0L662.485333 771.349333c0 11.797333-9.578667 21.376-21.376 21.376l-206.613333 0c-11.776 0-21.354667-9.578667-21.354667-21.376l0-856.618667-60.565333 0L352.576 384c0 11.776-9.557333 21.354667-21.354667 21.354667L124.650667 405.354667c-11.797333 0-21.376-9.557333-21.376-21.354667l0-469.269333L42.709333-85.26933299999996 42.709333 874.645333C42.709333 886.442667 33.152 896 21.354667 896S0 886.442667 0 874.645333l0-981.269333C0-118.44266700000003 9.557333-128 21.354667-128l103.296 0 206.592 0 103.274667 0 206.613333 0 103.253333 0 206.634667 0 51.626667 0c11.84 0 21.376 9.557333 21.354667 21.376C1023.978667-94.82666700000004 1014.421333-85.26933299999996 1002.602667-85.26933299999996zM309.888-85.26933299999996L146.026667-85.26933299999996 146.026667 362.624l163.861333 0L309.888-85.26933299999996zM619.754667-85.26933299999996L455.893333-85.26933299999996 455.893333 749.973333l163.861333 0L619.754667-85.26933299999996zM929.642667-85.26933299999996l-163.861333 0L765.781333 491.754667l163.861333 0L929.642667-85.26933299999996z"  horiz-adv-x="1025" />

    
    <glyph glyph-name="chuangka" unicode="&#59071;" d="M423.529412 382.33292800000004C549.276178 382.33292800000004 651.583711 481.202056 651.583711 605.616604 651.583711 729.535295 549.853359 825.357752 423.529412 825.357752 297.782645 825.357752 195.475114 726.488624 195.475114 602.074076 195.475114 478.155384 297.205467 382.33292800000004 423.529412 382.33292800000004L423.529412 382.33292800000004ZM423.529412 439.221814C328.662787 439.221814 253.393666 510.119749 253.393666 602.074076 253.393666 694.860993 329.561419 768.468866 423.529412 768.468866 518.396043 768.468866 593.665157 697.57093 593.665157 605.616604 593.665157 512.8296869999999 517.497404 439.221814 423.529412 439.221814L423.529412 439.221814ZM1212.669681 768.468866L687.782804 768.468866 658.823529 768.468866 658.823529 740.024422 658.823529 290.12291500000003 687.782804 318.567358 159.276018 318.567358 188.235294 290.12291500000003 188.235294 867.555556 188.235294 896 159.276018 896 28.959276 896 0 896 0 867.555556 0-99.55555700000002 0-128 28.959276-128 159.276018-128 188.235294-128 188.235294-99.55555700000002 188.235294 95.28367600000001 159.276018 66.83923300000004 1342.986427 66.83923300000004 1314.027147 95.28367600000001 1314.027147-99.55555700000002 1314.027147-128 1342.986427-128 1476.923079-128 1505.882353-128 1505.882353-99.55555700000002 1505.882353 481.419619C1505.882353 638.853728 1373.436091 768.468866 1212.669681 768.468866L1212.669681 768.468866ZM1212.669681 711.579973C1341.496037 711.579973 1447.963799 607.3880340000001 1447.963799 481.419619L1447.963799-99.55555700000002 1476.923079-71.11111400000004 1342.986427-71.11111400000004 1371.945701-99.55555700000002 1371.945701 95.28367600000001 1371.945701 123.72812499999998 1342.986427 123.72812499999998 159.276018 123.72812499999998 130.316742 123.72812499999998 130.316742 95.28367600000001 130.316742-99.55555700000002 159.276018-71.11111400000004 28.959276-71.11111400000004 57.918552-99.55555700000002 57.918552 867.555556 28.959276 839.111111 159.276018 839.111111 130.316742 867.555556 130.316742 290.12291500000003 130.316742 261.67847200000006 159.276018 261.67847200000006 687.782804 261.67847200000006 716.742084 261.67847200000006 716.742084 290.12291500000003 716.742084 740.024422 687.782804 711.579973 1212.669681 711.579973 1212.669681 711.579973Z"  horiz-adv-x="1506" />

    
    <glyph glyph-name="yuyinguangbo" unicode="&#59000;" d="M512 170.66666699999996c93.866667 0 170.666667 76.8 170.666667 170.666667L682.666667 682.666667c0 93.866667-76.8 170.666667-170.666667 170.666667s-170.666667-76.8-170.666667-170.666667l0-341.333333C341.333333 247.46666700000003 418.133333 170.66666699999996 512 170.66666699999996zM384 682.666667c0 70.4 57.6 128 128 128 70.4 0 128-57.6 128-128l0-170.666667L384 512 384 682.666667zM384 469.333333l256 0 0-128c0-70.4-57.6-128-128-128-70.4 0-128 57.6-128 128L384 469.333333zM768 341.33333300000004l0 64c0 12.8-8.533333 21.333333-21.333333 21.333333s-21.333333-8.533333-21.333333-21.333333l0-64c0-117.333333-96-213.333333-213.333333-213.333333s-213.333333 96-213.333333 213.333333l0 64c0 12.8-8.533333 21.333333-21.333333 21.333333s-21.333333-8.533333-21.333333-21.333333l0-64c0-134.4 102.4-243.2 234.666667-256l0-128-149.333333 0c-12.8 0-21.333333-8.533333-21.333333-21.333333 0-12.8 8.533333-21.333333 21.333333-21.333333l341.333333 0c12.8 0 21.333333 8.533333 21.333333 21.333333 0 12.8-8.533333 21.333333-21.333333 21.333333l-149.333333 0 0 128C665.6 98.133333 768 206.93333299999995 768 341.33333300000004z"  horiz-adv-x="1024" />

    
    <glyph glyph-name="HISshujupeizhi" unicode="&#59137;" d="M896 725.333333c0 70.4-172.8 128-384 128S128 795.733333 128 725.333333l0-170.666667c0-14.933333 8.533333-29.866667 21.333333-42.666667-14.933333-12.8-21.333333-27.733333-21.333333-42.666667l0-170.666667c0-14.933333 8.533333-29.866667 21.333333-42.666667-14.933333-12.8-21.333333-27.733333-21.333333-42.666667l0-170.666667c0-70.4 172.8-128 384-128s384 57.6 384 128l0 170.666667c0 14.933333-8.533333 29.866667-21.333333 42.666667 14.933333 12.8 21.333333 27.733333 21.333333 42.666667l0 170.666667c0 14.933333-8.533333 29.866667-21.333333 42.666667 14.933333 12.8 21.333333 27.733333 21.333333 42.666667L896 725.333333zM853.333333 100.26666699999998L853.333333 42.66666699999996c0-46.933333-153.6-85.333333-341.333333-85.333333S170.666667-4.266666999999984 170.666667 42.66666699999996l0 57.6 0 53.333333c64-40.533333 192-70.4 341.333333-70.4 149.333333 0 277.333333 27.733333 341.333333 70.4L853.333333 100.26666699999998zM512 128c-187.733333 0-341.333333 38.4-341.333333 85.333333 0 6.4 4.266667 14.933333 10.666667 21.333333 66.133333-38.4 189.866667-64 330.666667-64s264.533333 25.6 330.666667 64c6.4-6.4 10.666667-12.8 10.666667-21.333333C853.333333 166.39999999999998 699.733333 128 512 128zM853.333333 356.266667L853.333333 298.66666699999996c0-46.933333-153.6-85.333333-341.333333-85.333333S170.666667 251.73333300000002 170.666667 298.66666699999996l0 57.6 0 53.333333c64-40.533333 192-70.4 341.333333-70.4 149.333333 0 277.333333 27.733333 341.333333 70.4L853.333333 356.266667zM512 384c-187.733333 0-341.333333 38.4-341.333333 85.333333 0 6.4 4.266667 14.933333 10.666667 21.333333 66.133333-38.4 189.866667-64 330.666667-64s264.533333 25.6 330.666667 64c6.4-6.4 10.666667-12.8 10.666667-21.333333C853.333333 422.4 699.733333 384 512 384zM853.333333 612.266667L853.333333 554.666667c0-46.933333-153.6-85.333333-341.333333-85.333333S170.666667 507.733333 170.666667 554.666667l0 57.6 0 53.333333c64-40.533333 192-70.4 341.333333-70.4 149.333333 0 277.333333 27.733333 341.333333 70.4L853.333333 612.266667zM512 640c-187.733333 0-341.333333 38.4-341.333333 85.333333s153.6 85.333333 341.333333 85.333333 341.333333-38.4 341.333333-85.333333S699.733333 640 512 640z"  horiz-adv-x="1024" />

    
    <glyph glyph-name="beifenhuanyuan" unicode="&#59153;" d="M889.374212 128.71932600000002L831.700281 128.71932600000002l0 63.492476c0 17.647456-14.322573 31.970028-31.970028 31.970028s-31.970028-14.322573-31.970028-31.970028L767.760225 64.779269l121.613987 0c12.788011 0 25.576022 19.182017 25.576022 31.970028S902.162223 128.71932600000002 889.374212 128.71932600000002zM799.730253 324.248017c0 0-82.930253 6.266126-146.870309-47.699282C577.027037 212.54473900000005 575.940056 128.71932600000002 575.940056 128.71932600000002L531.182017 128.71932600000002l83.122073-108.634155L697.426163 128.71932600000002 639.880112 128.71932600000002c9.974649 57.929691 66.945239 126.857071 159.85014 127.240712 89.516079 0.38364 166.244146-73.722885 166.244146-163.175023s-76.728067-164.645645-166.244146-164.645645c-51.152045 0-95.910084 19.885357-127.880112 58.249391-12.788011 12.788011-25.576022 13.171652-38.364034 0.38364-12.788011-12.788011-12.788011-25.384202 0-38.172214 44.758039-51.088105 102.30409-76.600187 166.244146-76.600187 121.486107 0 223.790197 106.076553 223.790197 227.43478S921.21636 324.248017 799.730253 324.248017M508.994817 128.71932600000002L128.359663 128.71932600000002l0 127.880112 511.64833 0c32.609429 32.801249 75.513206 54.796628 123.212488 62.533375L712.516016 896l-597.839525 0L64.419607 262.35404300000005 64.419607 64.779269l487.542929 0C508.994817 128.71932600000002 551.962535 64.779269 508.994817 128.71932600000002zM165.061255 832.059944l497.197877 0 50.256884-511.52045-597.839525 0L165.061255 832.059944zM386.48567 628.8584450000001c0 28.453325-23.08236 51.535685-51.535685 51.535685-28.453325 0-51.535685-23.08236-51.535685-51.535685 0-13.874992 5.498845-26.407243 14.386513-35.678551C295.37109 583.013425 294.092288 572.3993760000001 294.092288 561.5295659999999c0-48.978083 25.831783-92.009741 64.579457-116.115142l0 0C337.635467 463.061879 334.502404 531.92532 334.502404 561.5295659999999c0 5.370965 0.44758 10.677989 1.278801 15.793194C363.91483 577.77034 386.48567 600.66088 386.48567 628.8584450000001L386.48567 628.8584450000001zM516.795504 582.310084c25.320262-12.979831 56.39513-2.941243 69.374961 22.37902C599.150297 630.009366 589.111708 661.084234 563.791446 674.064065 551.451015 680.394131 537.767843 681.225351 525.491352 677.516828 517.498845 684.294474 508.675117 690.304839 498.956229 695.228224 455.34911 717.607243 405.347986 714.21842 366.216672 690.68848l0 0c25.320262 10.677989 87.981517-17.903216 114.32482-31.394568 4.795504-2.429722 9.271308-5.243085 13.491352-8.376147C481.628473 625.7253820000001 491.731002 595.162036 516.795504 582.310084L516.795504 582.310084zM566.988448 570.545114C565.453887 535.4420230000001 504.902654 491.962785 475.618108 476.489291 467.114081 493.177646 449.722385 504.622916 429.709148 504.622916c-28.453325 0-51.535685-23.08236-51.535685-51.535685 0-28.453325 23.08236-51.535685 51.535685-51.535685 21.355979 0 39.706775 12.979831 47.507462 31.522448 52.558726 19.054137 90.091539 69.374961 90.091539 128.455573C567.308149 564.5347489999999 567.180268 567.539931 566.988448 570.545114"  horiz-adv-x="1024" />

    
    <glyph glyph-name="xinxikanban" unicode="&#58890;" d="M465.454545 896l0-93.090909L26.949818 802.909091C26.949818 802.909091 0 802.909091 0 779.636364 0 756.363636 26.949818 756.363636 26.949818 756.363636l970.100364 0C997.050182 756.363636 1024 756.363636 1024 779.636364 1024 802.909091 997.050182 802.909091 997.050182 802.909091L558.545455 802.909091 558.545455 896 465.454545 896zM232.727273 290.909091l46.545455 0 0-46.545455-46.545455 0 0 46.545455ZM325.818182 151.27272700000003l418.909091 0 0-46.545455-418.909091 0 0 46.545455ZM232.727273 151.27272700000003l46.545455 0 0-46.545455-46.545455 0 0 46.545455ZM232.727273 430.545455l46.545455 0 0-46.545455-46.545455 0 0 46.545455ZM156.066909 709.818182C156.066909 709.818182 46.545455 709.818182 46.545455 603.4152730000001l0-531.968C46.545455-34.90909099999999 156.066909-34.90909099999999 156.066909-34.90909099999999l711.866182 0c0 0 109.521455 0 109.521455 106.402909L977.454545 603.4152730000001C977.454545 709.818182 867.933091 709.818182 867.933091 709.818182L156.066909 709.818182zM930.909091 608.954182l0-543.045818C930.909091 11.636363999999958 875.054545 11.636363999999958 875.054545 11.636363999999958L148.945455 11.636363999999958c0 0-55.854545 0-55.854545 54.318545L93.090909 608.954182C93.090909 663.272727 148.945455 663.272727 148.945455 663.272727l726.109091 0C875.054545 663.272727 930.909091 663.272727 930.909091 608.954182zM26.949818-128l970.100364 0c0 0 26.949818 0 26.949818 23.272727 0 23.272727-26.949818 23.272727-26.949818 23.272727L26.949818-81.45454500000005C26.949818-81.45454500000005 0-81.45454500000005 0-104.72727299999997 0-128 26.949818-128 26.949818-128zM325.818182 290.909091l418.909091 0 0-46.545455-418.909091 0 0 46.545455ZM325.818182 430.545455l418.909091 0 0-46.545455-418.909091 0 0 46.545455ZM186.181818 570.181818l651.636364 0 0-46.545455-651.636364 0 0 46.545455Z"  horiz-adv-x="1024" />

    
    <glyph glyph-name="total" unicode="&#59246;" d="M771.56352 629.42208l0 70.53312L313.088 699.9552l269.78304-290.16064c16.896-18.18624 16.66048-46.44864-0.54272-64.33792L315.5968 68.04480000000001l455.95648 0 0 42.58816c0 25.81504 21.00224 46.81728 46.81728 46.81728 25.81504 0 46.82752-21.00224 46.82752-46.81728l0-89.40544c0-25.81504-21.00224-46.82752-46.82752-46.82752L205.6192-25.600000000000023c-18.7904 0-35.70688 11.17184-43.07968 28.47744-7.3728 17.3056-3.70688 37.24288 9.3184 50.80064L484.1472 378.44992 171.32544 714.89536c-12.67712 13.64992-16.06656 33.49504-8.63232 50.5856C170.1376 782.56128 186.99264 793.6 205.6192 793.6l612.7616 0c25.81504 0 46.82752-21.00224 46.82752-46.82752l0-117.3504c0-25.81504-21.00224-46.82752-46.82752-46.82752C792.56576 582.59456 771.56352 603.5968 771.56352 629.42208z"  horiz-adv-x="1024" />

    
    <glyph glyph-name="pintuanxuanzexinyishangpin" unicode="&#58920;" d="M512 895.981569C229.237065 895.981569 0.017919 666.762423 0.017919 383.999488c0-282.762935 229.219146-511.982081 511.982081-511.982081 282.762935 0 511.982081 229.218122 511.982081 511.982081C1023.982081 666.762423 794.762935 895.981569 512 895.981569zM655.245583 250.663771c-26.49901-28.340086-54.907701-54.997809-85.951036-78.42904-14.204346-10.749511-31.567602-25.318386-50.088954-29.204307-1.841077-0.704483-3.99958-1.045461-6.455031-0.864221-2.499482-0.181241-4.681536 0.159737-6.522613 0.910299-19.203309 4.159317-37.248521 20.158661-51.656634 31.544051-32.044766 25.36344-61.816346 53.817185-89.019838 84.201092-48.566329 54.270799-114.700705 132.973236-109.404794 211.106353 4.84025 71.110812 58.111665 128.790368 132.608707 127.291293 48.726066-1.000407 99.269658-22.317165 124.859393-63.520212 29.95282 42.725672 82.747071 68.883704 135.85875 62.884334 66.816333-7.545547 117.60977-60.020323 118.655231-128.018303C769.400519 386.159015 708.902007 307.957294 655.245583 250.663771z"  horiz-adv-x="1024" />

    
    <glyph glyph-name="jiaoseguanli" unicode="&#58988;" d="M750.231313 227.704929c-55.296189 0-100.285853-45.0045-100.285853-100.300689 0-55.30608 44.989664-100.310581 100.285853-100.310581 55.311026 0 100.300689 45.0045 100.300689 100.310581C850.532003 182.700428 805.542339 227.704929 750.231313 227.704929zM750.231313 78.779597c-26.809824 0-48.614752 21.814819-48.614752 48.624643 0 26.799933 21.804928 48.614752 48.614752 48.614752 26.814769 0 48.629588-21.814819 48.629588-48.614752C798.860901 100.594415 777.046083 78.779597 750.231313 78.779597zM1015.415634 179.807282c-3.763563 19.861327-16.508244 32.699973-32.873068 32.699973l-2.270007 0c-31.305328 0-56.789745 25.46958-56.789745 56.769963 0 8.219503 3.595414 18.318315 4.960386 21.483467 7.749676 17.45779 1.785343 38.88191-15.440006 50.810576l-66.398948 36.765215c-5.202718 2.245279-10.825808 3.392647-16.715957 3.392647-12.027576 0-23.911732-4.90104-31.785047-13.061196-8.273904-8.526127-30.242035-26.122392-45.375417-26.122392-15.271857 0-37.378463 17.937508-45.667204 26.59222-7.912879 8.362924-19.905837 13.357929-32.066943 13.357929-5.825857 0-11.364873-1.112749-16.340096-3.264063l-1.241333-0.509392-67.571043-37.111403-1.607304-1.038565c-15.707065-10.929664-21.706017-32.343894-14.005796-49.648371 0.514337-1.236387 5.029624-12.225398 5.029624-21.64667 0-31.300383-25.479471-56.769963-56.799636-56.769963l-2.645869 0c-15.966212 0-28.720784-12.838647-32.482369-32.719755-0.573684-3.05635-5.603308-30.518986-5.603308-52.719558 0-22.210463 5.029624-49.668154 5.603308-52.754177 3.760596-19.856381 16.505277-32.695028 32.878013-32.695028l2.245279 0c31.320165 0 56.804582-25.474525 56.804582-56.769963 0-8.219503-3.595414-18.318315-4.960386-21.488413-7.739785-17.433062-1.795234-38.8374 15.370768-50.80563l65.147724-36.300333c5.192827-2.255171 10.815917-3.42232 16.720903-3.42232 12.245181 0 24.25792 5.123589 32.106507 13.684335 8.021681 8.709113 30.805828 27.784097 46.369472 27.784097 15.726847 0 38.253825-19.114549 46.676096-28.352835 7.902988-8.709113 19.994857-13.90194 32.338948-13.90194 5.806075 0 11.335199 1.112749 18.056201 4.089969l65.869774 36.394299 1.57763 1.043511c15.687283 10.904937 21.671398 32.299384 13.981068 49.623644-0.514337 1.241333-5.029624 12.225398-5.029624 21.651616 0 31.295437 25.484417 56.769963 56.789745 56.769963l2.616196 0c15.998853 0 28.75837 12.838647 32.507097 32.645572 0.049455 0.276951 5.618144 29.445802 5.618144 52.803632C1021.013996 149.268514 1015.989318 176.73115 1015.415634 179.807282zM966.055093 92.374912c-53.486118-6.997953-94.237446-52.670102-94.237446-107.526137 0-12.665552 3.05635-24.693129 5.746729-32.833503l-47.531676-26.275704c-4.272955 4.18888-11.092868 10.464783-19.544812 16.730794-21.008694 15.588372-41.35963 23.521033-60.469234 23.521033-18.951346 0-39.139079-7.779349-60.019189-23.08088-8.328305-6.12259-15.07898-12.195725-19.421173-16.404388l-45.434763 25.420124c2.695324 8.155211 5.776402 20.256971 5.776402 32.922523 0 54.856035-40.741437 100.528185-94.2325 107.526137-1.369917 8.852534-3.28879 23.283647-3.28879 34.69303 0 11.458838 1.908982 25.850387 3.28879 34.678193 53.481172 7.002898 94.2325 52.684939 94.2325 107.531083 0 12.630933-3.05635 24.653564-5.741783 32.798884l49.059851 26.923571c4.258118-4.005895 11.087922-10.03452 19.480519-16.008744 20.598214-14.683336 40.45954-22.13628 59.010297-22.13628 18.367771 0 38.060949 7.309522 58.520687 21.720853 8.32336 5.84564 15.064144 11.691279 19.356881 15.677392l46.977775-26.10261c-2.690379-8.150266-5.761565-20.207515-5.761565-32.873068 0-54.856035 40.736491-100.528185 94.222609-107.531083 1.399591-9.010791 3.303627-23.372667 3.303627-34.688084C969.34784 115.66845 967.449738 101.351085 966.055093 92.374912zM70.034283-54.48318l0 56.799636c0 193.123708 148.930278 352.285338 338.673208 370.222846l-0.082096 0.039564c0 0 0.190898 0 0.494555-0.009891 11.631932 1.092966 23.399373 1.706215 35.313202 1.706215 1.793256 0 3.560796-0.098911 5.346139-0.118693 41.962988 3.254172 105.458898 13.113619 138.643535 42.734493l16.241185 12.657639c63.441509 49.541548 99.830862 123.556641 99.830862 203.053382C704.494871 775.051641 587.814522 890.935757 444.381717 890.935757S184.269552 775.051641 184.269552 632.603001c0-79.496741 36.391331-153.511835 99.83284-203.053382l16.236239-12.657639-19.131364-7.596364C112.198059 342.193411 2.990435 182.448205 2.990435 2.316456l0-90.028783c0-18.328206 15.026558-33.239038 33.515989-33.239038l489.766669 0c-15.944452 20.420174-29.534822 42.694929-40.520865 66.468185L70.034283-54.48318 70.034283-54.48318zM251.313399 632.603001c0 105.80014 86.606463 191.869517 193.068318 191.869517 106.459877 0 193.081176-86.069376 193.081176-191.869517 0-105.802119-86.621299-191.867538-193.081176-191.867538C337.919862 440.736452 251.313399 526.800882 251.313399 632.603001z"  horiz-adv-x="1024" />

    
    <glyph glyph-name="shuzi" unicode="&#58976;" d="M243.2 192C239.542857 218.174566 238.323809 241.157107 238.323809 274.992518L238.323809 598.024938C238.323809 636.329177 239.542857 665.695761 243.2 703.361596 221.257143 700.80798 212.114285 700.169576 181.028572 700.169576L124.952381 700.169576C96.304762 700.169576 82.895238 700.80798 64 704L64 622.922693C86.552381 625.476309 104.228572 626.753117 126.780952 626.753117L156.038095 626.753117 156.038095 274.992518C156.038095 241.795514 154.819048 216.897754 151.161905 192L243.2 192ZM496.693955 195.755501C528.498724 195.755501 548.376705 194.503667 571.733333 192L571.733333 274.621027C555.333999 271.491443 530.486522 269.613692 499.178702 269.613692L360.032834 269.613692C367.487077 293.398533 373.450472 305.91687 388.358957 325.946211 400.782696 342.845966 425.630172 369.134474 447.495951 388.537898 512.09939 444.244499 517.068885 449.251834 530.983472 465.525672 555.333999 494.317848 566.266888 524.361858 566.266888 565.672372 566.266888 651.422983 512.596339 704 425.630172 704 375.935219 704 336.676206 684.596577 311.82873 648.293398 293.441597 621.378973 284.496506 595.716381 277.539212 548.1467L348.602995 537.506113C352.081642 566.298289 355.560289 580.06846 364.00843 595.090465 376.432168 619.501222 398.297948 632.01956 427.121021 632.01956 469.361731 632.01956 495.700056 605.731052 495.700056 563.168704 495.700056 531.246944 481.785469 510.591687 436.066112 471.158924 386.371159 429.222494 371.462673 414.826406 354.06944 395.422983 321.76772 358.493887 299.404992 318.435208 285.987354 272.743276 279.527011 250.210272 276.048364 228.303181 273.066667 192.62592 290.4599 195.129587 298.411092 195.755501 337.173156 195.755501L496.693955 195.755501ZM601.6 319.384616C612.072727 283.692308 619.636364 267.692308 634.181818 250.461536 667.345453 210.461536 713.890912 192 781.963635 192 844.218182 192 893.090912 209.230771 925.090912 241.846157 946.618182 264.615384 960 298.461539 960 331.692308 960 368 951.27273 393.846154 932.07273 416.615384 911.709088 440.615384 890.181818 451.076923 848.87273 457.846154 879.709088 466.461539 892.509088 471.384616 905.309088 481.846154 930.32727 501.538461 945.454547 535.384616 945.454547 572.307692 945.454547 652.307692 882.618182 704 785.454547 704 738.909088 704 701.090912 692.923077 671.418182 670.153846 644.07273 649.230769 630.690909 627.692308 616.145455 582.153846L699.345453 567.384616C706.32727 592.615384 712.145453 603.076923 723.781818 614.769231 737.745453 627.076923 758.690912 633.846154 787.2 633.846154 836.654547 633.846154 864 609.846154 864 567.384616 864 520 829.67273 491.692308 771.490912 491.692308 746.47273 491.692308 733.67273 492.307692 715.054547 494.769231L715.054547 418.461539C734.836365 420.923077 751.709088 421.538461 777.309088 421.538461 802.909088 421.538461 830.254547 415.384616 844.218182 406.769231 865.163635 393.846154 876.8 370.461539 876.8 342.153846 876.8 293.538461 840.145453 262.153846 782.545453 262.153846 754.618182 262.153846 731.345453 270.153846 712.145453 286.153846 697.6 298.461539 692.363635 308.307692 684.8 336.615384L601.6 319.384616ZM64 128 960 128 960 64 64 64 64 128Z"  horiz-adv-x="1024" />

    
    <glyph glyph-name="shebeizhuceguanli" unicode="&#59030;" d="M994.649 612.751l-165.75 0 0-161.225c0-19.39-16.185-35.155-36.115-35.155-19.965 0-36.15 15.765-36.15 35.155L756.634 612.751l-165.71 0c-19.96 0-36.155 15.727-36.155 35.155 0 19.395 16.195 35.155 36.155 35.155l165.71 0L756.634 844.255c0 19.425 16.185 35.155 36.15 35.155 19.93 0 36.115-15.73 36.115-35.155L828.899 683.06l165.75 0c19.96 0 36.11-15.76 36.11-35.155C1030.759 628.4780000000001 1014.609 612.751 994.649 612.751zM468.23 734.088L127.706 734.088c-30.565 0-55.435-24.195-55.435-53.945l0-673.651c0-29.75 24.87-53.94 55.435-53.94l692.518 0c30.595 0 55.47 24.19 55.47 53.94L875.694 326.05600000000004c0 19.43 16.15 35.155 36.125 35.155 19.96 0 36.14-15.725 36.14-35.155l0-319.564c0-68.54-57.32-124.25-127.735-124.25L127.706-117.75800000000004c-70.415 0-127.705 55.71-127.705 124.25L0.001 680.143c0 68.5 57.29 124.22 127.705 124.22L468.23 804.363c19.965 0 36.16-15.725 36.16-35.117C504.39 749.815 488.195 734.088 468.23 734.088z"  horiz-adv-x="1031" />

    
    <glyph glyph-name="keshiguanli" unicode="&#59184;" d="M485-64L143.75-64c-8.75 0-16.25 7.5-16.25 16.25L127.5 816c0 8.75 7.5 16.25 16.25 16.25l736.25 0c8.75 0 16.25-7.5 16.25-16.25l0-576.25 63.75-27.5 0 603.75c0 43.75-36.25 80-80 80L143.75 896C100 896 63.75 859.75 63.75 816l0-863.75c0-43.75 36.25-80 80-80l341.25 0L485-64 485-64zM860 246c0 55-45 100-100 100-55 0-100-45-100-100 0-55 45-100 100-100C815 146 860 191 860 246L860 246zM893.75 112.25L893.75 112.25 875 112.25l-103.75-211.25L810 96l-50 50-50-50 38.75-195-103.75 211.25L625 112.25l0 0c-66.25 0-66.25-45-66.25-100l0-140 401.25 0L960 12.25C960 67.25 960 112.25 893.75 112.25L893.75 112.25zM228.75 728.5l562.5 0 0-58.75-562.5 0L228.75 728.5 228.75 728.5zM228.75 577.25l453.75 0 0-63.75-453.75 0L228.75 577.25 228.75 577.25zM228.75 414.75l368.75 0 0-58.75L228.75 356 228.75 414.75 228.75 414.75z"  horiz-adv-x="1024" />

    
    <glyph glyph-name="ico-sex" unicode="&#58972;" d="M306.623 276.305c125.358 17.375 221.908 124.919 221.908 255.050 0 142.289-115.312 257.6-257.607 257.6-142.238 0.001-257.6-115.311-257.6-257.6 0-130.131 96.544-237.675 221.961-255.050v-124.026l-166.835 0v-71.228h166.835v-166.886h71.286v166.833h166.829v71.23l-166.776-0v124.077zM84.72 531.355c0 102.93 83.334 186.262 186.204 186.262 102.929 0 186.262-83.389 186.262-186.262 0-102.875-83.333-186.262-186.262-186.262-102.87 0.001-186.204 83.387-186.204 186.262v0zM504.103 138.681c0.051-142.296 115.421-257.606 257.769-257.549 142.289 0.058 257.543 115.422 257.49 257.71-0.058 130.138-96.66 237.617-222.019 254.993l-0.109 261.378 68.123-68.175 50.411 50.411-154.342 154.173-154.064-154.226 50.41-50.359 68.176 68.235 0.116-261.38c-125.475-17.486-222.019-125.079-221.96-255.213v0zM947.965 138.842c0.109-102.929-83.275-186.313-186.211-186.372-102.928-0.052-186.262 83.332-186.313 186.21 0 102.871 83.276 186.261 186.204 186.313 102.878 0.109 186.263-83.277 186.321-186.152v0zM947.965 138.842z"  horiz-adv-x="1024" />

    
    <glyph glyph-name="icfemale" unicode="&#59240;" d="M512 874.656c265.92 0 481.504-219.68 481.504-490.656s-215.584-490.656-481.504-490.656c-265.952 0-481.504 219.68-481.504 490.656s215.552 490.656 481.504 490.656l0 0 0 0zM597.632 664.448c35.008 4.704 76.416-10.304 105.408-28.128 28.064-16.896 48.352-39.424 63.968-71.296 11.072-22.048 17.952-45.024 20.704-70.368 5.056-50.208-23.936-107.392-46.944-133.216-15.2-16.864-30.4-28.128-51.104-38.912-19.808-10.304-43.264-18.272-69.024-20.672-40.48-4.192-86.56 13.632-118.752 37.536-13.344 9.376-23.488 19.712-33.6 33.792-20.256 28.608-33.6 60.48-37.28 98.464-5.024 46.912 18.88 99.936 46.048 133.216 11.968 14.048 31.296 28.128 51.104 38.944 20.704 10.784 42.816 17.376 69.472 20.64l0 0 0 0zM224.8 332.384c0-6.624-0.448-17.344 0.448-23.488 0.48-7.968 4.64-10.784 7.84-14.592l44.64-45.92c4.128-4.192 7.328-7.968 11.488-11.712 4.128-4.256 9.664-8.448 11.488-11.808-1.824-3.232-15.2-16.448-19.328-20.128l-49.696-50.624c-1.824-1.888-2.784-2.912-4.128-5.152-2.304-2.848-1.824-4.704-3.2-7.04l0-26.272c6.432-10.784-0.928-2.816 12.416-16.448 6.432-6.56 9.216-7.968 21.664-7.968 23.904 0 19.328-0.448 38.656 19.232 9.216 8.864 16.576 16.864 28.992 28.992 5.056 5.152 9.216 9.344 14.272 14.624 4.608 5.088 10.144 10.24 14.272 15.008l39.136-39.872c4.128-4.256 30.368-31.904 34.528-34.72 2.752-2.336 4.608-2.336 6.88-3.808l26.208 0 5.088 2.336c1.824 0.928 3.2 2.272 4.128 2.816 11.968 10.784 15.2 14.624 15.2 29.536 0 25.344 0 19.776-19.328 39.872-14.752 15.52-38.208 40.8-53.408 55.392-0.928 0.928-0.928 0.928-1.856 1.888-1.824 1.376-0.928 0-1.824 2.272 2.304 3.232 8.288 8.928 11.488 12.192 4.128 4.192 7.84 8 12 12.704l24.384 23.904c8.288-5.152 15.648-11.168 25.344-16.864 29.92-16.864 61.696-27.68 97.568-30.944 65.344-5.632 118.304 5.696 171.712 41.312 20.704 14.08 49.696 43.104 64.864 64.288 46.496 64.736 43.232 121.024 46.048 128.064l0 43.136c-0.928 3.264-1.824 21.6-2.784 27.2-8.352 54.88-34.08 98.976-69.92 136.032-36.832 37.984-79.168 63.328-133.472 72.224-4.64 0.928-23.008 2.336-25.792 3.296l-44.64 0c-4.128-1.888-14.72-1.888-19.872-2.336-37.28-5.632-76.896-21.6-105.376-44.064-6.464-4.704-18.4-14.08-23.52-20.16-3.2-3.776-6.88-7.04-10.592-10.784-19.296-19.712-32.224-36.576-45.088-61.92-31.744-61.44-35.424-148.704-9.184-217.184 11.04-29.536 29.472-52.96 30.368-55.328l-47.84-48.768c-3.2 1.856-11.04 11.712-14.72 14.528-5.984 5.152-36.832 37.536-43.264 44.576-18.88 19.2-14.272 18.272-40.032 18.272-12.896 0-14.304-2.816-20.736-8.928-5.024-5.152-8.736-7.488-11.488-16.864l0 0 0 0z"  horiz-adv-x="1024" />

    
    <glyph glyph-name="icmale" unicode="&#59241;" d="M512 874.656c265.92 0 481.504-219.68 481.504-490.656s-215.584-490.656-481.504-490.656-481.504 219.68-481.504 490.656 215.584 490.656 481.504 490.656l0 0 0 0zM407.296 465.568c23.008 2.336 55.68-7.04 73.632-15.008 10.592-4.704 20.704-9.856 29.44-15.488 15.648-10.336 24.416-17.376 36.384-31.456 25.344-29.536 42.336-72.224 45.6-113.024 1.824-24.416-6.464-55.36-14.688-75.072-17.12-42.656-44.704-73.248-86.56-94.304-20.224-9.824-44.16-17.344-69.952-19.2-38.176-3.264-87.456 15.904-117.824 39.872-39.552 31.424-63.968 82.08-68.576 135.552-2.784 33.344 12.896 77.408 30.368 105.056 2.784 4.704 5.984 8.928 9.216 13.12 2.752 4.224 6.88 9.376 10.144 12.672 16.096 16.416 30.368 27.2 52 37.984 21.984 10.816 43.616 16.896 70.784 19.232l0 0 0 0zM610.72 542.944c-1.824-3.296-8.736-9.856-12-12.672-4.576-4.704-32.672-34.208-35.456-35.648-3.68 1.888-8.704 6.112-12.896 8.928-28.544 18.752-58.912 30.496-92.96 35.648l-18.88 2.784c-3.232-0.928-26.208 0-31.776 0-10.112 0-20.224-0.448-30.368-1.888-18.4-2.336-35.424-6.56-51.552-12.192-33.12-12.192-58.464-30.016-79.168-49.248-51.104-47.392-78.688-95.68-85.152-172.128-1.824-43.616 0-76.896 14.24-115.392 9.248-26.208 28.576-60 48.352-80.224 25.344-24.832 35.424-37.952 70.88-57.248 14.272-7.968 28.544-13.664 45.088-18.752 8.736-2.88 17.472-4.768 26.208-6.112 5.984-0.928 24.864-2.304 28.064-3.232l42.816 0c3.68 1.344 14.72 1.888 19.776 2.304 5.984 0.928 12 1.888 17.984 3.232 11.04 2.272 23.008 6.08 33.12 10.24 24.864 9.888 59.84 30.56 78.24 50.656 3.68 3.808 7.392 7.552 11.072 11.232 10.592 10.784 20.736 22.016 29.472 35.168 33.6 52.032 46.016 105.504 40.48 174.912-2.272 26.24-8.288 48.8-17.056 70.368-3.68 10.304-8.736 20.16-13.792 29.088-2.784 4.704-5.536 9.376-8.736 13.6-2.24 3.744-6.816 9.856-8.288 13.152 7.776 8.928 17.44 17.376 26.208 26.272l52.512 53.472c4.64 4.704 8.704 8.448 13.344 13.152 2.752 3.296 9.664 11.264 12.896 12.672 0-11.744-0.928-92.896 0.928-98.016 1.344-4.224 8.736-10.784 11.104-13.6 6.464-6.112 9.216-4.704 19.808-4.704 25.76 0 23.488-2.336 37.28 11.744 5.952 6.112 4.608 8.896 4.608 19.68l0.928 167.904 0 28.576c-5.088 8.928-2.784 5.664-11.52 14.56-6.464 6.56-9.632 5.152-20.256 5.152l-126.592 0c-4.576 0-21.152-0.48-23.904 0.48l-40.48 0c-4.128-2.336-4.608-1.888-8.288-5.152-12.416-12.672-12.416-11.264-12.416-27.2 0-21.568-3.2-24.384 13.792-39.392 6.464-5.632 12.416-4.224 22.048-4.224l26.208 0c17.056 0 34.496 0 51.584-0.448-1.376-2.816-23.936-24.864-28.576-29.088l-21.664-22.048c-1.344-1.408-2.272-2.336-3.68-3.744-0.928-0.48-1.376-1.408-1.856-1.888-1.28-0.736-0.352-0.256-1.696-0.736l0 0 0 0z"  horiz-adv-x="1024" />

    
    <glyph glyph-name="fabuguanli" unicode="&#58910;" d="M708.301 352.461v0zM838.486-93.86699999999996h-682.598c-60.484 0-126.908 66.355-126.908 126.839v585.045c0 61.167 65.399 94.208 126.908 94.208h373.897c24.986 0 45.466-20.412 45.466-45.534 0-25.259-20.48-45.807-45.466-45.807h-373.897c-25.259 0-34.884-4.028-36.523-5.53l0.956-582.383c0.683-8.124 21.163-35.567 35.567-35.567h678.571c2.458 4.096 6.895 15.223 6.895 35.567v357.376c0 25.327 20.617 45.875 45.943 45.875 24.986 0 45.466-20.548 45.466-45.875v-357.376c0-79.394-47.991-126.839-94.276-126.839zM429.978 138.85400000000004c-20.412 0-38.025 13.244-43.895 33.041-0.546 1.843-56.047 194.15 59.051 331.639 75.366 89.975 202.889 132.983 379.699 128.137l-148.821 148.89c-17.886 18.091-17.886 46.421-0.137 64.512 17.34 17.545 47.514 17.545 64.785 0l262.007-261.598-263.919-232.516c-18.978-16.589-48.879-14.268-64.58 3.959-16.657 18.978-14.882 47.991 4.028 64.512l137.421 120.969c-143.292 3.14-244.668-28.945-300.373-95.437-78.848-94.413-45.261-232.243-41.233-247.603 7.1-23.893-6.895-49.289-31.13-56.525-4.233-1.297-8.602-1.98-12.902-1.98z"  horiz-adv-x="1024" />

    
    <glyph glyph-name="wenjuanjiluguanli" unicode="&#58934;" d="M510.162654 550.703743c0 14.818497-12.612249 26.831089-28.172643 26.831089L218.694349 577.5348309999999c-15.560394 0-28.173666-12.011568-28.173666-26.831089 0-14.81952 12.613272-26.832112 28.173666-26.832112l263.295662 0C497.550405 523.871631 510.162654 535.887292 510.162654 550.703743zM328.125691 391.201006L218.694349 391.201006c-15.560394 0-28.173666-12.012591-28.173666-26.832112 0-14.818497 12.613272-26.832112 28.173666-26.832112l109.431342 0c15.560394 0 28.173666 12.012591 28.173666 26.832112C356.30038 379.18841399999997 343.686085 391.201006 328.125691 391.201006zM190.520683 178.03711499999997c0-14.818497 12.613272-26.831089 28.173666-26.831089l547.536354 0c15.558347 0 28.17162 12.011568 28.17162 26.831089s-12.613272 26.833135-28.17162 26.833135L218.694349 204.87025000000006C203.139072 204.87025000000006 190.520683 192.85663499999998 190.520683 178.03711499999997zM952.339402 823.949011c-11.002588 11.001565-26.795273 8.954953-37.796838-2.046612L362.143459 270.525576c-11.001565-11.002588-13.048177-27.822672-2.046612-38.824237 5.500271-5.495154 12.709463-8.248871 19.918655-8.248871 7.208169 0 12.370749 4.799306 17.878183 10.295484L950.292789 786.155243C961.294354 797.156808 963.340967 812.947446 952.339402 823.949011zM867.597369 23.032831999999985c0-16.375969-17.419741-33.795711-33.794687-33.795711L151.128511-10.762878999999998c-16.375969 0-33.796734 17.419741-33.796734 33.795711L117.331777 705.703933c0 16.380062 17.419741 33.799804 33.796734 33.799804l552.067554 0 0 52.250014L151.128511 791.753751c-47.52541 0-86.047772-38.527478-86.047772-86.049818l0-682.671101c0-47.52541 38.527478-86.047772 86.047772-86.047772l682.674171 0c47.51927 0 86.045725 38.522362 86.045725 86.047772L919.848407 574.81079l-52.251038 0L867.597369 23.032831999999985z"  horiz-adv-x="1024" />

    
    <glyph glyph-name="average" unicode="&#58888;" d="M512-128C229.229714-128 0 101.26628600000004 0 384.036571 0 666.806857 229.229714 896.036571 512 896.036571 794.770286 896.036571 1024 666.806857 1024 384.036571 1024 101.26628600000004 794.770286-128 512-128ZM512 822.857143C269.641143 822.857143 73.142857 626.358857 73.142857 384 73.142857 141.64114300000006 269.641143-54.85714299999995 512-54.85714299999995 754.358857-54.85714299999995 950.857143 141.64114300000006 950.857143 384 950.857143 626.358857 754.358857 822.857143 512 822.857143ZM746.971429 243.85828600000002C738.779429 192.91428599999995 727.661714 164.82742900000005 710.656 151.369143 697.782857 140.83657100000005 677.888 136.74057100000005 642.779429 136.74057100000005 629.906286 136.74057100000005 616.996571 137.32571399999995 580.717714 139.666286 578.377143 164.24228600000004 574.281143 180.04114300000003 564.333714 205.78742899999997 595.931429 201.10628599999995 624.64 198.180571 643.949714 198.180571 665.014857 198.180571 670.866286 202.276571 677.302857 219.24571400000002 690.761143 259.072 697.782857 361.50857099999996 698.368 526.592L524.507429 526.592C505.782857 492.617143 485.302857 466.870857 448.438857 432.347429 437.284571 446.976 430.262857 455.168 421.485714 463.945143L421.485714 457.508571C408.612571 458.678857 399.250286 459.264 380.525714 459.264L372.918857 459.264 372.918857 308.22400000000005C405.686857 322.304 407.442286 322.889143 433.188571 336.34742900000003L434.358857 273.70057099999997C392.228571 252.63542900000004 347.136 233.91085699999996 299.739429 216.32000000000005 268.726857 205.20228599999996 268.141714 204.61714300000006 252.306286 198.180571L237.677714 264.33828600000004C252.891429 266.093714 273.993143 271.94514300000003 310.272 284.23314300000004L310.272 459.264 293.302857 459.264C269.897143 459.264 258.157714 458.678857 242.944 456.338286L242.944 520.740571C256.987429 518.4 271.067429 517.2297140000001 293.302857 517.2297140000001L310.272 517.2297140000001 310.272 600.356571C310.272 629.028571 309.686857 643.072 306.761143 662.381714L376.429714 662.381714C373.504 643.072 372.918857 630.784 372.918857 600.941714L372.918857 517.2297140000001 382.866286 517.2297140000001C403.931429 517.2297140000001 412.123429 517.8148570000001 421.485714 519.570286L421.485714 495.579429C453.705143 526.592 470.674286 551.753143 488.813714 594.505143 495.835429 610.304 502.272 630.198857 508.123429 652.4342859999999 508.708571 655.945143 508.708571 655.945143 509.878857 664.137143 510.464 667.062857 510.464 667.648 511.634286 671.158857L580.717714 655.945143C577.792 650.093714 577.206857 648.338286 573.110857 637.2205710000001 568.429714 622.592 558.482286 596.260571 554.971429 588.068571L710.070857 588.068571C731.172571 588.068571 752.822857 589.238857 763.940571 590.409143 762.185143 576.3291429999999 761.6 567.552 761.6 538.88 761.6 401.883429 756.918857 307.053714 746.971429 243.85828600000002ZM535.661714 491.446857C581.888 461.604571 609.974857 441.124571 642.779429 413.037714L605.293714 367.36C567.844571 401.298286 541.513143 421.229714 499.931429 448.146286L535.661714 491.446857ZM645.12 369.70057099999997L657.408 311.149714C607.634286 278.381714 544.438857 243.273143 502.272 225.13371400000005 494.08 221.58628599999997 489.984 219.83085700000004 479.451429 213.39428599999997L458.971429 277.21142899999995C469.504 279.552 477.696 281.892571 489.984 285.988571 533.906286 301.787429 593.590857 334.00685699999997 645.12 369.70057099999997Z"  horiz-adv-x="1024" />

    
    <glyph glyph-name="menkoufenji" unicode="&#59901;" d="M64 896l0-1024 832 0L896 896 64 896zM128-64L128 832l704 0 0-581.952C821.952 253.69600000000003 811.264 256 800 256l-192 0C555.2 256 512 212.79999999999995 512 160S555.2 64 608 64l192 0c11.264 0 21.952 2.304 32 5.952L832-64 128-64zM832 160c0-17.344-14.656-32-32-32l-192 0C590.656 128 576 142.65599999999995 576 160S590.656 192 608 192l192 0C817.344 192 832 177.34400000000005 832 160zM192 192l64 0 0-64L192 128 192 192zM320 192l64 0 0-64L320 128 320 192zM192 320l64 0 0-64L192 256 192 320zM320 320l64 0 0-64L320 256 320 320zM192 64l64 0 0-64L192 0 192 64zM320 64l64 0 0-64L320 0 320 64zM768 768L192 768l0-320 576 0L768 768zM576 608C576 555.072 532.928 512 480 512S384 555.072 384 608 427.072 704 480 704 576 660.928 576 608zM256 704l96.704 0C332.48 677.184 320 644.16 320 608S332.48 538.816 352.704 512L256 512 256 704zM704 512L607.296 512C627.52 538.816 640 571.8399999999999 640 608S627.52 677.184 607.296 704L704 704 704 512z"  horiz-adv-x="1024" />

    
    <glyph glyph-name="zhibanshiguanli" unicode="&#59952;" d="M64 896l0-192 64 0 0-640 0-64 0-64 64 0 0 64 576 0 0-64 64 0 0 64L832 704l64 0L896 896 64 896zM192 64L192 704l64 0 0-384 448 0L704 704l64 0 0-640L192 64zM320 384L320 704l128 0 0-320L320 384zM512 384L512 704l128 0 0-320L512 384zM832 768l-128 0L256 768 128 768 128 832l704 0L832 768z"  horiz-adv-x="1024" />

    
    <glyph glyph-name="wenzhangfenlei-new" unicode="&#58895;" d="M701.413 652.348c52.119 0 104.239 0.031 156.359-0.028 9.695-0.011 17.38-4.035 21.919-12.812 4.603-8.903 3.703-17.672-2.166-25.707-4.752-6.506-11.566-9.382-19.507-9.393-38.691-0.048-77.38-0.022-116.071-0.022-65.869 0-131.738-0.013-197.608 0.011-13.856 0.005-24.509 10.555-24.475 24.086 0.034 13.276 10.681 23.841 24.23 23.848 52.44 0.034 104.879 0.013 157.319 0.014zM700.878 470.078c-52.12 0-104.24-0.031-156.36 0.028-9.708 0.01-17.359 4.098-21.882 12.869-4.598 8.915-3.657 17.689 2.225 25.701 4.763 6.492 11.59 9.339 19.536 9.345 47.643 0.037 95.287 0.019 142.929 0.019 56.916 0 113.831 0.016 170.748-0.012 13.824-0.007 24.469-10.607 24.413-24.148-0.055-13.27-10.706-23.781-24.292-23.788-52.438-0.033-104.878-0.013-157.317-0.013zM700.88 335.76800000000003c-52.119 0-104.239-0.031-156.359 0.027-9.708 0.011-17.361 4.097-21.884 12.867-4.598 8.915-3.658 17.689 2.222 25.702 4.763 6.492 11.59 9.341 19.535 9.347 47.324 0.037 94.646 0.019 141.97 0.019 57.235 0 114.472 0.016 171.707-0.012 13.825-0.007 24.471-10.605 24.415-24.146-0.054-13.27-10.704-23.783-24.289-23.79-52.439-0.033-104.878-0.013-157.318-0.013zM701.184 201.45899999999995c-52.28 0-104.559-0.016-156.839 0.011-14.066 0.007-24.665 10.707-24.479 24.563 0.169 12.543 10.687 23.177 23.265 23.362 8.152 0.12 16.307 0.027 24.46 0.027 96.726 0.001 193.451 0.008 290.177-0.007 13.999-0.003 24.685-10.366 24.72-23.845 0.034-13.368-10.521-24.071-23.985-24.088-38.53-0.053-77.061-0.02-115.591-0.02-13.911-0.002-27.819-0.002-41.729-0.001zM701.404 115.11300000000006c52.12 0 104.24 0.031 156.36-0.027 9.693-0.011 17.384-4.027 21.925-12.804 4.604-8.902 3.71-17.67-2.155-25.708-4.751-6.51-11.563-9.389-19.504-9.4-36.611-0.051-73.223-0.022-109.835-0.022-67.948 0-135.895-0.013-203.843 0.01-13.86 0.005-24.517 10.551-24.485 24.078 0.031 13.281 10.672 23.85 24.219 23.859 52.437 0.034 104.877 0.013 157.317 0.014zM531.873 767.506c12.254-0.019 21.515-7.974 23.528-19.926 1.966-11.659-4.335-22.435-15.494-26.322-17.001-5.922-34.128-11.493-51.006-17.743-16.462-6.097-32.341 3.871-33.949 20.54-0.708 7.345 2.579 16.955 11.191 21.76 3.313 1.85 6.949 3.195 10.55 4.447 14.446 5.025 28.928 9.944 43.413 14.856 3.918 1.329 7.842 2.742 11.767 2.389zM442.144 359.78099999999995c-0.005 71.617-0.003 143.236-0.007 214.853-0.001 7.667-0.927 15.267-2.353 22.764-6.416 33.72-22.324 62.07-48.092 84.907-12.806 11.348-27.085 20.233-42.914 26.531-22.263 8.858-45.293 12.179-69.3 9.906-19.027-1.803-36.973-6.85-53.819-15.558-19.054-9.849-35.382-23.135-48.743-40.108-20.318-25.809-31.859-55.099-31.958-87.784-0.436-143.714-0.2-287.431-0.141-431.147 0.002-5.081 0.357-10.213 1.111-15.235 2.841-18.918 8.614-36.854 18.159-53.544 15.609-27.292 37.627-47.787 65.918-61.2 27.492-13.034 56.5-17.106 86.656-12.294 36.835 5.876 67.285 23.282 91.077 51.772 23.468 28.104 34.55 60.835 34.461 97.518-0.168 69.54-0.049 139.081-0.053 208.621zM394.185 150.17100000000005c0-29.067-10.246-53.982-31.113-74.139-16.056-15.511-35.377-24.689-57.756-27.192-33.166-3.707-61.4 6.723-84.549 30.305-15.635 15.927-24.635 35.376-27.261 57.741-0.619 5.269-0.769 10.489-0.77 15.74-0.023 138.421 0.03 276.843-0.065 415.263-0.015 22.725 5.806 43.509 19.264 61.881 15.862 21.653 36.999 35.087 63.528 39.96 28.751 5.281 54.893-1.07 78.137-18.329 22.853-16.97 35.968-39.962 39.749-68.307 0.873-6.546 0.809-13.047 0.813-19.574 0.037-68.093 0.023-136.183 0.023-204.277-0.001-69.69-0.002-139.381 0-209.071zM320.316 247.50599999999997c0 10.859-0.032 21.718 0.008 32.576 0.044 11.717 8.01 20.118 19.058 20.182 11.053 0.066 19.264-8.345 19.291-19.944 0.052-21.877 0.052-43.753 0-65.63-0.027-11.599-8.239-20.009-19.291-19.944-11.047 0.065-19.014 8.469-19.058 20.183-0.04 10.858-0.008 21.717-0.008 32.575zM318.373 149.04399999999998c0.089 11.728 9.327 20.784 21.169 20.752 11.429-0.031 21.046-9.697 21.031-21.136-0.016-11.492-9.925-21.131-21.648-21.059-11.382 0.069-20.64 9.729-20.552 21.442z"  horiz-adv-x="1024" />

    
    <glyph glyph-name="weishengjian" unicode="&#58884;" d="M953.6 896l-224 0c-44.8 0-76.8-38.4-70.4-76.8l0-473.6L70.4 345.6c-51.2 0-83.2-51.2-64-96l147.2-332.8C166.4-108.8 192-128 224-128l640 0c64 0 108.8 44.8 115.2 102.4L1024 825.6C1024 864 992 896 953.6 896zM934.4-19.2c0-38.4-38.4-70.4-76.8-70.4l-640 0c-12.8 0-25.6 6.4-32 19.2L38.4 262.4c-6.4 12.8 0 19.2 0 25.6 0 6.4 12.8 12.8 25.6 12.8l588.8 0L704 300.8l0 38.4 0 473.6 0 0 0 0C697.6 832 704 844.8 704 844.8c6.4 6.4 12.8 12.8 25.6 12.8l224 0c19.2 0 32-12.8 32-32L934.4-19.2zM19.2 416l601.6 0c12.8 0 19.2 6.4 19.2 19.2S627.2 454.4 620.8 454.4L19.2 454.4C6.4 454.4 0 441.6 0 435.2S6.4 416 19.2 416z"  horiz-adv-x="1024" />

    
    <glyph glyph-name="wenziguangbo" unicode="&#58914;" d="M648.490101-117.69242099999997L648.490101-47.34830999999997C844.095194-1.066596000000004 989.80068 174.23051799999996 989.80068 384 989.80068 593.735351 844.095194 769.032465 648.490101 815.34831L648.490101 861.834811 648.490101 885.658289C882.151323 838.216119 1058.062796 631.6549560000001 1058.062796 384 1058.062796 136.31091300000003 882.151323-70.25025000000005 648.490101-117.69242099999997ZM68.262116 179.21365200000002C30.547297 179.21365200000002 0 209.76094899999998 0 247.47576800000002L0 520.524232C0 558.20492 30.547297 588.786348 68.262116 588.786348L238.917406 588.786348 546.096927 895.965869 546.096927-127.965869 238.917406 179.21365200000002 68.262116 179.21365200000002ZM477.834811 42.655290000000036L477.834811 725.276448 273.048463 520.490101 68.262116 520.490101 68.262116 247.44163700000001 273.048463 247.44163700000001 477.834811 42.655290000000036ZM819.14539 401.065529C819.14539 283.44990299999995 749.040197 182.45610299999998 648.490101 136.89114099999995L648.490101 214.60755900000004C709.926005 254.06306199999995 750.883274 322.59822699999995 750.883274 401.065529 750.883274 479.4987 709.926005 548.033864 648.490101 587.489367L648.490101 665.205786C749.040197 619.6408240000001 819.14539 518.647024 819.14539 401.065529Z"  horiz-adv-x="1059" />

    
    <glyph glyph-name="09_shebeiguanli" unicode="&#58927;" d="M933.477 33.657H667.552c-12.875 2.257-22.534 9.47-26.853 19.91-4.719 11.41-2.598 40.901-2.598 61.48V519.399c0 11.684-0.724 22.762 1.735 29.424 1.082 2.983 4.474 7.949 7.789 11.261 10.818 10.811 24.353 9.52 45.911 9.52H873.71c16.309 0 38.524 0.866 54.562 0 5.836-0.315 11.954-0.996 15.601-2.591 1.046-0.461 1.468-1.859 2.591-2.597 1.223-0.8 3.434-0.996 4.342-1.741 2.231-1.853 3.602-4.675 5.182-6.923 0.779-1.114 1.973-1.488 2.614-2.597 2.478-4.367 2.382-8.649 4.313-13.851v-474.481c-2.704-17.511-12.679-27.745-29.438-31.166z m-147.266 25.098c2.768-4.445 6.698-8.159 12.121-8.63 2.446-0.232 6.373-0.014 8.662 0.863 2.488 0.949 7.615 5.995 8.655 8.642 2.871 7.268 0.273 14.249-1.729 17.322-2.073 3.137-3.904 4.206-6.054 5.181-3.92 1.814-5.874 2.479-12.138 0.878-11.696-2.979-14.69-15.938-9.517-24.256z m95.265 471.883c-1.149 5.037-5.632 5.626-13.849 6.068-19.528 1.036-42.265 0-60.646 0-31.659 0-56.468 1.831-81.432 0-0.892-0.071-0.489-0.731-0.863-0.87-4.242-1.694-7.992-6.222-5.169-12.12 2.289-4.835 8.407-4.275 17.329-4.324 39.622-0.22 72.726 0 110.86 0 6.959 0 15.965-0.682 22.528 0 4.747 0.477 5.912-0.147 8.651 2.597 1.98 1.964 3.654 4.114 2.591 8.649z m49.381-44.153H670.993c-1.005-0.147-0.927-1.361-0.863-2.598v-383.576h260.727V486.485zM753.287 625.03h-43.316c-0.451 15.306 1.557 28.455-2.591 38.956-4.088 10.357-15.952 22.441-27.71 25.973-8.458 2.541-20.287 1.734-32.93 1.734H168.597c-11.896 0-23.22 0.807-32.052-1.734-13.611-3.906-24.455-15.455-28.578-25.973-3.708-9.475-2.601-24.031-2.601-39.827v-254.552c0-14.907-1.889-33.203 1.735-43.305 4.503-12.531 15.82-24.09 27.719-27.697 14.629-4.445 38.56-1.744 57.17-1.744h412.325v-109.083H124.43c-13.17 0-26.537-1.005-35.514 2.591-4.896 1.973-10.789 6.333-14.722 10.404-7.522 7.753-9.453 15.006-12.138 26.827V694.284c3.766 23.366 17.04 37.217 40.706 40.699h609.816c17.284-2.737 30.97-11.478 37.246-26.841 4.483-10.918 3.463-24.802 3.463-39.822v-43.29z m-491.15-563.666c0.599 0.466 1.967 0.332 2.591 0.866 2.102 1.81 3.605 4.389 6.071 6.073 0.646 0.426 1.879 0.331 2.591 0.863 0.73 0.535 1.017 2.087 1.728 2.593 0.843 0.573 1.854 0.301 2.604 0.861 13.509 10.04 29.129 19.338 44.182 26.828v63.216c-0.061 1.235-0.125 2.444 0.879 2.59h170.643v-64.943c2.858-3.151 6.917-4.114 10.396-6.051 5.43-3.026 11.449-6.579 17.326-10.386 1.619-1.053 4.378-2.73 6.921-4.332 2.198-1.348 4.01-2.372 6.054-4.331 0.907-0.845 4.284-2.858 6.07-4.31 1.362-1.112 2.62-1.891 4.32-3.457 1.039-0.996 2.758-1.987 4.338-3.482 3.705-3.468 16.48-10.816 15.601-19.044-1.648-15.495-54.907-10.388-73.633-10.388H282.923c-21.832 0-41.366 4.102-26.853 20.778 1.403 1.611 3.975 4.452 6.067 6.056z"  horiz-adv-x="1024" />

    
    <glyph glyph-name="xinxifabu" unicode="&#58893;" d="M760.32 700.4159999999999l-103.424-164.864c-10.24-16.384-2.048-29.696 18.432-29.696h61.44v-128c0-9.728 7.68-17.408 16.384-17.408h51.712c9.216 0 16.384 7.68 16.384 17.408v128H880.64c20.48 0 28.672 13.312 18.432 29.696l-101.888 165.376c-10.24 15.872-26.624 15.872-36.864-0.512zM923.648 236.54399999999998v-125.952c0-30.208-23.04-54.784-51.2-54.784H151.04c-28.16 0-51.2 24.576-51.2 54.784V657.92c0 30.208 23.04 54.784 51.2 54.784h356.352c14.336-1.536 26.112-14.336 26.112-30.208 0-16.896-12.8-30.72-28.16-30.72H210.432c-28.16 0-51.2-24.576-51.2-54.784v-424.96c0-30.208 23.04-54.784 51.2-54.784H814.08c28.16 0 51.2 24.576 51.2 54.784v174.592c2.56 14.336 13.824 25.088 27.648 25.088h2.56c15.36 0 28.16-13.824 28.16-30.72v-104.448c0-16.896-12.8-30.72-28.16-30.72 15.36 0 28.16 13.824 28.16 30.72zM517.12 522.24H221.696c-13.824 0-25.6 11.776-25.6 25.6s11.776 25.6 25.6 25.6H517.12c13.824 0 25.6-11.776 25.6-25.6 0-14.336-11.264-25.6-25.6-25.6zM517.12 363.52H221.696c-13.824 0-25.6 11.776-25.6 25.6s11.776 25.6 25.6 25.6H517.12c13.824 0 25.6-11.776 25.6-25.6 0-14.336-11.264-25.6-25.6-25.6zM720.384 204.79999999999995H221.696c-13.824 0-25.6 11.776-25.6 25.6 0 14.336 11.776 25.6 25.6 25.6h498.176c14.336 0 25.6-11.776 25.6-25.6 0.512-14.336-11.264-25.6-25.088-25.6z"  horiz-adv-x="1024" />

    
    <glyph glyph-name="plus-wenjuanku" unicode="&#59165;" d="M281.6 25.600000000000023l460.8 0c14.144 0 25.6 11.456 25.6 25.6l0 0c0 14.144-11.456 25.6-25.6 25.6L281.6 76.79999999999995c-14.144 0-25.6-11.456-25.6-25.6l0 0C256 37.05600000000004 267.456 25.600000000000023 281.6 25.600000000000023zM742.4 460.8L281.6 460.8c-14.144 0-25.6-11.456-25.6-25.6l0 0c0-14.144 11.456-25.6 25.6-25.6l460.8 0c14.144 0 25.6 11.456 25.6 25.6l0 0C768 449.344 756.544 460.8 742.4 460.8zM742.4 332.79999999999995L281.6 332.79999999999995c-14.144 0-25.6-11.456-25.6-25.6l0 0c0-14.144 11.456-25.6 25.6-25.6l460.8 0c14.144 0 25.6 11.456 25.6 25.6l0 0C768 321.34400000000005 756.544 332.79999999999995 742.4 332.79999999999995zM742.4 204.79999999999995L281.6 204.79999999999995c-14.144 0-25.6-11.456-25.6-25.6l0 0c0-14.144 11.456-25.6 25.6-25.6l460.8 0c14.144 0 25.6 11.456 25.6 25.6l0 0C768 193.34400000000005 756.544 204.79999999999995 742.4 204.79999999999995zM281.6 691.2c-42.24 0-76.8-34.56-76.8-76.8s34.56-76.8 76.8-76.8l460.8 0c42.24 0 76.8 34.56 76.8 76.8s-34.56 76.8-76.8 76.8L614.2208 691.2C630.336 712.6143999999999 640 739.1487999999999 640 768c0 70.6944-57.3056 128-128 128-70.6944 0-128-57.3056-128-128 0-28.8512 9.664-55.3856 25.7792-76.8L281.6 691.2zM512 844.8c42.3424 0 76.8-34.4576 76.8-76.8s-34.4576-76.8-76.8-76.8-76.8 34.4576-76.8 76.8S469.6576 844.8 512 844.8zM742.4 640c13.8752 0 25.6-11.7248 25.6-25.6s-11.7248-25.6-25.6-25.6L281.6 588.8c-13.8752 0-25.6 11.7248-25.6 25.6s11.7248 25.6 25.6 25.6L742.4 640zM857.6 819.2L702.2592 819.2c-15.7568 0-27.3152-14.0288-25.2672-29.6576 0.0256-0.1664 0.0512-0.3456 0.064-0.512C678.5792 777.1392 688.2304 768 700.1984 768L857.6 768c28.2752 0 51.2-22.9248 51.2-51.2l0-742.4c0-28.2752-22.9248-51.2-51.2-51.2L166.4-76.79999999999995c-28.2752 0-51.2 22.9248-51.2 51.2L115.2 716.8c0 28.2752 22.9248 51.2 51.2 51.2l157.4016 0c11.9808 0 21.6192 9.1392 23.1424 21.0176 0.0256 0.1664 0.0384 0.3456 0.064 0.512C349.0688 805.1712 337.5104 819.2 321.7408 819.2L166.4 819.2c-56.32 0-102.4-46.08-102.4-102.4l0-742.4c0-56.32 46.08-102.4 102.4-102.4l691.2 0c56.32 0 102.4 46.08 102.4 102.4L960 716.8C960 773.12 913.92 819.2 857.6 819.2zM512 768m-38.4 0a3 3 0 1 1 76.8 0 3 3 0 1 1-76.8 0Z"  horiz-adv-x="1024" />

    
    <glyph glyph-name="shagnjiaguanli" unicode="&#58898;" d="M1007.459 535.8620000000001c-0.849 3.958-1.981 7.776-3.394 10.746l-79.466 193.433c-17.957 52.601-69.001 86.535-130.226 86.677h-562.341c-60.66 0-109.3-32.381-126.269-82.294l-86.959-201.492c-0.565-1.696-1.274-3.958-1.839-6.364-6.93-21.351-10.464-43.411-10.464-65.61 0.141-79.042 44.257-151.437 115.239-189.05 0.423-0.285 0.849-0.423 1.274-0.706 29.834-15.553 64.62-23.471 103.361-23.471 53.307 0.141 103.929 18.948 143.378 52.601 39.168-33.228 89.647-51.893 142.954-52.176 52.601 0.423 102.655 19.229 141.823 52.317 39.452-33.513 90.353-52.317 143.943-52.317 39.452 0.141 74.8 8.484 104.916 24.745 70.559 37.754 114.393 110.15 114.393 188.626-0.141 21.493-3.675 43.833-10.322 64.336zM872.848 337.198c-20.786-11.171-45.955-16.967-74.657-17.108-46.378 0-89.929 19.795-119.621 54.297-12.018 13.999-36.338 13.999-48.357 0-29.269-34.219-72.254-54.015-117.643-54.297-46.095 0.285-89.363 20.078-118.773 54.156-5.939 6.93-14.848 11.028-24.178 11.028 0 0 0 0 0 0-9.333 0-18.241-4.1-24.178-11.028-29.553-34.502-73.103-54.437-119.199-54.579-27.713 0-52.176 5.373-72.679 15.838-0.285 0.141-0.706 0.423-0.99 0.565-51.044 26.582-82.859 78.335-82.859 135.035 0 16.118 2.687 32.238 8.06 50.057l86.959 201.351c9.05 26.582 29.834 40.581 62.922 40.581h568.703c34.077-0.141 58.964-15.27 69.001-44.257l80.455-196.969c0.285-1.131 0.565-2.26 0.99-3.394 4.949-14.848 7.635-30.966 7.494-46.802 0-56.135-31.108-107.603-81.444-134.469zM766.233 542.0830000000001h-508.467c-16.686 0-30.259-14.279-30.259-31.955s13.573-31.955 30.259-31.955h508.467c16.686 0 30.259 14.279 30.259 31.955s-13.434 31.955-30.259 31.955zM891.231 194.385c-16.402 0-31.532-15.27-31.532-31.532v-157.941h-695.257v157.799c0 16.26-15.27 31.532-31.532 31.532-16.402 0-31.532-15.27-31.532-31.532v-191.877c0-16.26 13.293-29.553 29.553-29.553h762.277c16.402 0 29.553 13.149 29.553 29.553v191.877c0 16.26-15.129 31.674-31.532 31.674z"  horiz-adv-x="1024" />

    
    <glyph glyph-name="bingfangbingchaungguanli" unicode="&#58896;" d="M515.069851 117.69041700000002c-7.572299 0-15.04227 2.148896-21.488958 6.139702C375.698611 197.813531 358.916758 260.02918 357.177176 283.25771999999995c-0.409313 3.479165-0.61397 7.265314-0.61397 10.949135 0 57.303887 46.354752 103.965624 103.351654 103.965624 19.44239 0 38.680124-5.62806 55.154991-16.065554 16.474868 10.437494 35.712601 16.065554 55.154992 16.065554 56.996902 0 103.351654-46.661737 103.351653-103.965624 0-3.274508-0.204657-6.651344-0.511641-10.232837-1.739582-28.958929-21.898271-87.90007-136.403718-160.041571-6.446687-4.093135-13.81433-6.242031-21.591286-6.24203z m-55.154991 252.444089c-41.44299 0-75.211352-34.075347-75.211352-75.927651 0-2.660538 0.204657-5.423404 0.511641-8.288598 0.818627-11.153792 10.437494-67.434396 123.408015-138.245628 3.888478-2.455881 9.209553-2.455881 13.098031 0C632.747477 217.767563 644.105926 271.18297199999995 645.026881 285.91825700000004v0.511642c0.306985 2.762866 0.409313 5.321075 0.409314 7.776956 0 41.852303-33.768362 75.927651-75.211352 75.927651-16.781853 0-33.25672-5.730389-46.45708-16.167883l-8.697912-6.856-8.697911 6.856c-13.20036 10.437494-29.675227 16.167882-46.45708 16.167883zM769.355851-24.853002999999944h-508.572c-41.647647 0-75.620666 33.870691-75.620665 75.620666V461.51374c0 11.665434 9.41421 21.079644 21.079644 21.079645s21.079644-9.41421 21.079644-21.079645v-410.746077c0-18.419107 15.04227-33.461377 33.461377-33.461377h508.674328c18.419107 0 33.461377 15.04227 33.461377 33.461377V461.51374c0 11.665434 9.41421 21.079644 21.079645 21.079645 11.665434 0 21.079644-9.41421 21.079644-21.079645v-410.746077c-0.102328-41.749975-33.973019-75.620666-75.722994-75.620666zM936.662736 334.42190500000004c-5.423404 0-10.744479 2.046567-14.939942 6.139702L509.953433 752.433297 108.416908 350.89677200000006c-8.18627-8.18627-21.591286-8.18627-29.777556 0s-8.18627 21.591286 0 29.777556l416.476467 416.476466c8.18627 8.18627 21.591286 8.18627 29.777556 0l426.709303-426.709303c8.18627-8.18627 8.18627-21.591286 0-29.777556-4.195463-4.195463-9.516538-6.242031-14.939942-6.24203z"  horiz-adv-x="1024" />

    
    <glyph glyph-name="zhibanshi" unicode="&#58925;" d="M614.4 896h-67.2v-169.6h67.2V896z m137.6 0h-67.2v-169.6h67.2V896zM342.4 896H272v-169.6h67.2V896h3.2z m134.4 0h-67.2v-169.6h67.2V896zM201.6 896h-64v-169.6h67.2L201.6 896z m755.2-67.2v-137.6H67.2V828.8L0 748.8v-803.2L70.4-128h883.2l70.4 73.6V748.8l-67.2 80z m0-889.6H67.2V624h886.4l3.2-684.8zM886.4 896h-67.2v-169.6h67.2V896zM496 51.200000000000045l-12.8 22.4 32 54.4-25.6 25.6c-6.4 6.4-6.4 16 0 25.6h73.6c6.4-6.4 6.4-16 0-25.6l-25.6-25.6 32-54.4-9.6-22.4c105.6 6.4 185.6 41.6 185.6 83.2 0 67.2-60.8 80-144 83.2-9.6 16-19.2 35.2-19.2 54.4 28.8 19.2 51.2 51.2 60.8 92.8 3.2-3.2 6.4-3.2 9.6-3.2 9.6 0 16 6.4 16 16V416c0 9.6-6.4 16-16 16h-6.4c-6.4 76.8-57.6 137.6-118.4 137.6-60.8 0-108.8-60.8-118.4-137.6-9.6 0-16-6.4-16-16v-35.2c0-9.6 6.4-16 16-16h3.2c9.6-35.2 25.6-64 48-80 6.4-22.4-3.2-44.8-16-64-80-3.2-137.6-22.4-137.6-83.2 6.4-44.8 86.4-80 188.8-86.4z"  horiz-adv-x="1024" />

    
    <glyph glyph-name="hushiguanli" unicode="&#58902;" d="M761.6 57.60000000000002h-44.8v44.8c0 6.4-6.4 12.8-12.8 12.8s-12.8-6.4-12.8-12.8v-44.8h-44.8c-6.4 0-12.8-6.4-12.8-12.8s6.4-12.8 12.8-12.8h44.8v-44.8c0-6.4 6.4-12.8 12.8-12.8s12.8 6.4 12.8 12.8v44.8h44.8c6.4 0 12.8 6.4 12.8 12.8s-6.4 12.8-12.8 12.8zM972.8 12.799999999999955c-12.8 70.4-102.4 128-249.6 179.2-32 12.8-57.6 19.2-83.2 32h-12.8c-32-25.6-89.6-89.6-115.2-147.2-25.6 64-102.4 128-102.4 134.4 38.4 25.6 51.2 44.8 51.2 70.4 12.8-6.4 32-12.8 51.2-12.8 89.6 0 166.4 102.4 166.4 230.4v38.4s-12.8 76.8-121.6 83.2c-83.2 6.4-115.2 51.2-128 64h243.2c64-32 140.8-121.6 140.8-281.6 0-51.2-6.4-102.4-19.2-140.8 0-6.4-6.4-12.8-6.4-12.8 0-6.4 0-12.8 6.4-12.8s12.8 0 12.8 6.4 6.4 12.8 6.4 12.8c12.8 44.8 19.2 96 19.2 153.6 0 134.4-51.2 224-108.8 268.8V793.6c0 32-25.6 64-64 64H358.4c-32 0-64-25.6-64-64V672c-51.2-44.8-96-134.4-102.4-262.4 0-128 38.4-198.4 57.6-236.8-108.8-44.8-179.2-102.4-198.4-160v-89.6c0-6.4 6.4-12.8 12.8-12.8h896c6.4 0 12.8 6.4 12.8 12.8v89.6zM544 595.2c89.6-6.4 102.4-64 102.4-64v-32c0-115.2-64-204.8-140.8-204.8-76.8 0-140.8 89.6-140.8 204.8 0 57.6 12.8 140.8 32 179.2 12.8-25.6 57.6-76.8 147.2-83.2zM320 793.6c0 25.6 19.2 38.4 38.4 38.4h294.4c19.2 0 38.4-19.2 38.4-38.4v-96c-6.4 6.4-19.2 12.8-25.6 12.8H358.4h-6.4c-12.8 0-19.2-6.4-32-12.8V793.6z m-51.2-608c-19.2 32-57.6 96-51.2 217.6 0 160 76.8 249.6 140.8 281.6h19.2c-25.6-44.8-32-128-32-185.6 0-89.6 38.4-166.4 96-204.8v-6.4c0-19.2-6.4-57.6-134.4-96-19.2-6.4-25.6-6.4-38.4-6.4 6.4 0 0 0 0 0zM947.2-64H76.8v70.4c12.8 57.6 102.4 121.6 230.4 160 32 12.8 57.6 19.2 76.8 32 0 0 0-6.4 6.4-6.4 0 0 102.4-89.6 108.8-160 6.4 38.4 70.4 134.4 115.2 166.4 19.2-12.8 44.8-19.2 76.8-32 134.4-44.8 217.6-102.4 230.4-160 25.6-6.4 25.6-38.4 25.6-70.4z"  horiz-adv-x="1024" />

    
    <glyph glyph-name="min" unicode="&#58942;" d="M563.2 452.266667a21.333333 21.333333 0 0 1-21.333333-21.333334v-247.466666a21.333333 21.333333 0 1 1 42.666666 0v247.466666A21.333333 21.333333 0 0 1 563.2 452.266667zM563.2 563.2a21.333333 21.333333 0 0 1-21.333333-21.333333v-34.133334a21.333333 21.333333 0 1 1 42.666666 0v34.133334A21.333333 21.333333 0 0 1 563.2 563.2zM430.3104 549.6831999999999a21.3248 21.3248 0 0 1-20.155733 17.271467 21.205333 21.205333 0 0 1-21.376-15.726934l-76.945067-283.409066-71.150933 283.025066a21.026133 21.026133 0 0 1-21.102934 16.128 21.333333 21.333333 0 0 1-20.462933-16.930133l-76.3648-362.1632a21.333333 21.333333 0 0 1 41.7536-8.8064l57.3184 271.8208 68.539733-272.6144a21.333333 21.333333 0 0 1 20.488534-16.136533 21.572267 21.572267 0 0 1 20.7872 15.744l74.222933 273.408 51.669333-267.588267a21.333333 21.333333 0 0 1 41.890134 8.0896l-69.111467 357.888zM743.850667 450.8416c-25.0112 0-47.6672-12.296533-65.450667-32.964267V430.933333a21.333333 21.333333 0 1 1-42.666667 0v-247.466666c0-11.0848 8.482133-20.087467 19.293867-21.128534 1.877333-0.5376 3.805867-0.913067 5.853867-0.913066a21.333333 21.333333 0 0 1 21.333333 21.333333V298.64959999999996c0 58.3424 28.808533 109.525333 61.6448 109.525333 34.9696 0 66.3552-6.9632 66.3552-91.016533v-134.4a21.333333 21.333333 0 1 1 42.666667 0v134.4c-0.008533 89.949867-35.6608 133.6832-109.0304 133.6832z"  horiz-adv-x="1024" />

    
    <glyph glyph-name="max" unicode="&#58943;" d="M682.666667 512a21.333333 21.333333 0 0 1-21.333334-21.333333v-33.28c-22.826667 28.040533-53.5552 45.371733-87.415466 45.371733-70.186667 0-127.291733-74.018133-127.291734-164.992 0-90.965333 57.096533-164.9664 127.291734-164.9664 33.860267 0 64.5888 17.322667 87.415466 45.354667V192a21.333333 21.333333 0 1 1 42.666667 0v298.666667A21.333333 21.333333 0 0 1 682.666667 512zM573.917867 215.46666700000003c-46.660267 0-84.625067 54.869333-84.625067 122.299733 0 67.447467 37.9648 122.325333 84.625067 122.325333 46.6688 0 84.6336-54.877867 84.6336-122.325333 0-67.4304-37.9648-122.299733-84.6336-122.299733zM380.177067 560.349867a21.3248 21.3248 0 0 1-20.155734 17.271466c-9.864533 0.580267-18.781867-6.144-21.376-15.726933l-76.945066-283.409067-71.150934 283.025067c-2.423467 9.634133-11.0336 16.452267-21.102933 16.128a21.333333 21.333333 0 0 1-20.462933-16.930133l-76.373334-362.171734a21.333333 21.333333 0 0 1 41.7536-8.8064l57.3184 271.8208 68.539734-272.6144a21.333333 21.333333 0 0 1 20.488533-16.136533c9.403733 0.068267 18.244267 6.3744 20.7872 15.744l74.222933 273.408 51.669334-267.588267a21.333333 21.333333 0 0 1 41.890133 8.0896l-69.102933 357.896534zM874.427733 343.49226699999997l83.968 138.436266a21.333333 21.333333 0 0 1-36.488533 22.126934l-72.465067-119.466667-72.635733 119.4752a21.3248 21.3248 0 1 1-36.4544-22.1696l84.1472-138.427733-82.602667-136.174934a21.3504 21.3504 0 0 1 36.488534-22.135466l71.099733 117.213866 71.278933-117.239466a21.307733 21.307733 0 0 1 29.312-7.1424 21.3248 21.3248 0 0 1 7.1424 29.312l-82.7904 136.192z"  horiz-adv-x="1024" />

    
    <glyph glyph-name="jilianxuanze" unicode="&#59029;" d="M128 384v288c0 16 12.8 32 32 32h384c19.2 0 32-12.8 32-32v-288c0-16-12.8-32-32-32h-32v-64h64c35.2 0 64 28.8 64 64v352c0 35.2-28.8 64-64 64h-448c-35.2 0-64-28.8-64-64v-352c0-35.2 28.8-64 64-64h192v64h-160c-16 0-32 12.8-32 32zM896 480h-192v-64h160c19.2 0 32-12.8 32-32v-288c0-16-12.8-32-32-32h-384c-19.2 0-32 12.8-32 32v288c0 16 12.8 32 32 32h32v64h-64c-35.2 0-64-28.8-64-64v-352c0-35.2 28.8-64 64-64h448c35.2 0 64 28.8 64 64v352c0 35.2-28.8 64-64 64z"  horiz-adv-x="1024" />

    
    <glyph glyph-name="wenzhangku" unicode="&#58949;" d="M997.391059 267.941647L978.823529 269.65835300000003a202.059294 202.059294 0 0 1-23.913411 57.208471l10.571294 13.025882c9.411765 11.550118 9.953882 26.819765 1.219764 35.553882l-34.590117 34.590118c-8.508235 8.478118-23.326118 8.146824-34.770824-0.662588l-16.022588-10.37553c-10.435765 7.228235-17.950118 12.318118-34.258823 16.534588V692.133647c0 42.029176-35.282824 87.160471-75.173648 87.160471H485.240471c-22.904471 25.479529-60.973176 32.888471-91.904 15.254588l-43.474824-24.847059L42.932706 594.2512939999999a74.571294 74.571294 0 0 1-27.708235-101.632L285.214118 20.269176000000016a74.029176 74.029176 0 0 1 45.101176-34.831058c6.565647-1.776941 13.221647-2.665412 19.832471-2.665412 12.754824 0 25.313882 3.312941 36.608 9.758118l166.113882 93.650823-0.240941 0.421647h30.373647c1.400471-1.716706 3.011765-3.222588 4.939294-4.186353 0.316235-0.150588 0.647529-0.271059 0.978824-0.406588l29.153882-39.499294c0.451765-0.602353 0.948706-1.069176 1.475765-1.611294 11.188706-11.248941 25.464471-13.010824 34.650353-5.436236l18.236235 13.146353a204.077176 204.077176 0 0 1 52.434823-22.889411l2.304-20.043295c4.397176-42.947765 18.823529-39.544471 24.259765-39.54447h48.865882c4.939294 0 19.983059-3.418353 24.184471 38.053647l1.807059 8.643765c20.178824 5.436235 38.881882 15.375059 55.401412 25.554823l14.848-10.782117c10.992941-9.020235 26.624-9.110588 35.629176-0.13553l34.575059 35.011765c8.764235 8.794353 8.342588 24.169412-1.054118 35.689412l-11.264 14.20047c10.917647 17.543529 19.486118 36.397176 24.651294 56.32l18.236236 1.807059c13.839059 1.385412 30.433882 10.375529 30.433882 24.289882V243.65176499999995c0.015059 13.929412-16.579765 22.889412-30.358588 24.289882zM488.628706 775.710118c-0.436706 0.557176-0.978824 0.978824-1.430588 1.520941 1.370353-0.451765 2.123294-0.963765 1.430588-1.520941z m-79.947294-8.011294a43.595294 43.595294 0 0 0 48.338823-3.46353h-54.407529l6.068706 3.46353z m-37.195294-748.288a43.128471 43.128471 0 0 0-33.039059-4.141177 43.264 43.264 0 0 0-26.383059 20.329412L42.059294 507.964235a43.279059 43.279059 0 0 0-4.141176 33.054118 43.218824 43.218824 0 0 0 20.34447 26.383059l248.094118 141.808941a105.065412 105.065412 0 0 1-1.41553-15.540706v-133.556706a7.68 7.68 0 0 1-7.695058 0.180706L138.631529 469.609412a7.725176 7.725176 0 0 1 7.664942-13.44753l158.629647 90.669177 0.015058 0.015059v-140.182589a7.619765 7.619765 0 0 1-9.878588 2.123295l-91.708235-52.434824a7.740235 7.740235 0 1 1 7.68-13.417412l91.708235 52.434824a7.830588 7.830588 0 0 1 2.213647 1.927529v-119.521882c-0.075294 0.165647-0.075294 0.361412-0.180706 0.527059a7.785412 7.785412 0 0 1-10.556235 2.876235l-36.111059-20.630588a7.725176 7.725176 0 1 1 7.68-13.44753l36.111059 20.630589a7.484235 7.484235 0 0 1 3.056941 3.538823v-107.369412c0-40.417882 28.491294-62.298353 61.560471-62.298353h150.859294l-145.889882-82.191058z m235.369411 94.027294c-2.379294 0.813176-4.894118 1.264941-7.514353 0.813176l-0.105411-0.015059a15.540706 15.540706 0 0 1-8.07153 2.469647H366.501647c-35.388235 0-46.501647 35.493647-46.501647 47.23953V693.6696469999999c0 9.908706 0.933647 18.010353 2.439529 24.741647l42.752 24.440471 11.068236 6.324706h395.610353c22.949647 0 45.056-32.105412 45.056-57.042824v-254.027294l-0.466824 0.632471c-2.123294 3.147294-3.297882 4.321882-11.776 4.321882l-50.959059-0.240941c-4.096 0-6.324706 0.015059-10.496-2.590118-2.831059-1.776941-4.502588-6.339765-4.924235-10.616471l-2.710588-26.473411-4.126118-0.843294c-20.434824-4.126118-39.845647-8.041412-57.765647-18.808471l-21.639529 20.570353c-9.743059 7.936-19.727059 9.366588-25.404236 3.689412l-35.162353-34.304c-3.900235-3.900235-4.592941-9.788235-2.831058-15.796706H405.654588a7.544471 7.544471 0 0 1-7.725176-7.529412c0-4.276706 3.448471-7.529412 7.725176-7.529412h185.509647a7.830588 7.830588 0 0 1 5.330824 2.078118l14.893176-18.100706a197.436235 197.436235 0 0 1-24.515764-60.867765l-32.993883-3.026823c-4.909176-0.496941-16.459294-3.433412-21.052235-10.435765h-127.186824a7.544471 7.544471 0 0 1-7.725176-7.529412c0-4.276706 3.448471-7.529412 7.725176-7.529411h125.168942v-40.809412c0-11.700706 16.911059-16.097882 23.085176-16.730353l30.885647-3.087059c4.788706-19.907765 13.447529-39.875765 25.765647-59.512471l-3.689412-3.599058z m390.79153 87.943529c0-0.045176-2.800941-0.090353-3.056941-0.120471l-30.614589-2.951529a15.420235 15.420235 0 0 1-13.552941-12.333176 171.866353 171.866353 0 0 0-28.220235-65.596236c-3.990588-5.647059-3.734588-13.236706 0.602353-18.597647l17.52847-21.910588-26.337882-26.669176-22.588235 16.549647a15.435294 15.435294 0 0 1-17.498353 0.677647c-18.838588-12.182588-41.170824-24.801882-64.045177-28.882824-6.535529-1.159529-11.595294-5.616941-12.574117-12.182588l-3.448471-21.729882c-0.376471-3.764706-1.536-11.399529-2.695529-11.39953H760.771765c-1.204706 0-2.424471 8.207059-2.831059 12.242824l-3.46353 29.56047a15.450353 15.450353 0 0 1-12.167529 13.477647c-19.892706 4.216471-40.598588 13.522824-61.515294 27.663059a15.36 15.36 0 0 1-17.498353-0.12047l-22.317176-15.600942-23.838118 32.331294c0.391529 1.882353 0.451765 3.900235 0.105412 5.903059 0 0.060235-0.060235 0.120471-0.060236 0.180706l8.764236 8.508235a7.740235 7.740235 0 0 1 1.069176 9.833412c-14.320941 21.534118-23.762824 43.414588-28.16 65.024a7.589647 7.589647 0 0 1-6.686118 6.159059l-36.909176 3.629177c-3.659294 0.376471-9.351529 2.017882-9.351529 3.267764V237.176471h45.281882a7.544471 7.544471 0 0 1 7.725176 7.529411 7.333647 7.333647 0 0 1-4.156235 6.595765 7.559529 7.559529 0 0 1 5.797647 5.767529c4.487529 23.476706 13.462588 45.628235 26.669177 65.852236a7.740235 7.740235 0 0 1-0.496942 9.125647l-21.413647 26.172235c-1.957647 2.409412-2.138353 4.833882-2.966588 4.246588l33.987765 33.144471c1.219765-0.361412 3.358118-1.295059 5.541647-3.056941l25.615059-24.289883a7.755294 7.755294 0 0 1 9.728-0.602353c16.775529 11.595294 35.584 15.706353 57.374117 20.10353l9.743059 2.620235c3.297882 0.692706 5.767529 4.668235 6.098824 8.011294l2.800941 29.726118c0.572235-0.075294 1.445647 3.403294 2.078118 3.403294l50.176 0.090353c0.752941 0 0.707765-3.553882 1.415529-3.433412l2.379294-17.498353c0.602353-3.177412 3.117176-5.647059 6.294588-6.189176l2.063059-0.39153a14.832941 14.832941 0 0 1 5.857883-8.944941c2.032941-4.035765 5.601882-7.243294 10.36047-8.252235 15.435294-3.312941 19.486118-6.113882 30.34353-13.628235 3.026824-2.093176 6.415059-4.457412 10.480941-7.107765 6.249412-4.080941 14.592-3.132235 19.727059 2.334118l5.12 5.421176 15.194352 9.833412 25.750589-25.705412-16.489412-20.419765a15.405176 15.405176 0 0 1-0.572235-18.522353 172.784941 172.784941 0 0 0 28.084706-66.499764c1.249882-6.716235 7.363765-11.821176 14.155294-12.528941l29.018353-2.891295c0.240941-0.030118 2.996706-0.060235 2.996705-0.105411v-35.704471zM778.917647 365.357176c-80.353882 0-145.724235-65.370353-145.724235-145.724235 0-80.338824 65.370353-145.709176 145.724235-145.709176 80.338824 0 145.709176 65.370353 145.709177 145.709176 0 80.353882-65.370353 145.724235-145.709177 145.724235z m0-275.983058c-71.830588 0-130.273882 58.443294-130.273882 130.258823 0 71.830588 58.443294 130.273882 130.273882 130.273883 71.815529 0 130.243765-58.443294 130.243765-130.273883s-58.428235-130.258824-130.243765-130.258823zM778.917647 273.408c-29.665882 0-53.790118-24.124235-53.790118-53.790118s24.124235-53.790118 53.790118-53.790117 53.790118 24.124235 53.790118 53.790117-24.139294 53.790118-53.790118 53.790118z m0-76.649412c-12.604235 0-22.874353 10.270118-22.874353 22.874353s10.270118 22.874353 22.874353 22.874353c12.604235 0 22.874353-10.270118 22.874353-22.874353s-10.270118-22.874353-22.874353-22.874353zM405.654588 598.5882349999999H761.223529a7.559529 7.559529 0 0 1 7.725177 7.529412c0 4.276706-3.463529 7.529412-7.725177 7.529412H405.654588a7.544471 7.544471 0 0 1-7.725176-7.529412c0-4.276706 3.448471-7.529412 7.725176-7.529412zM405.654588 463.058824H668.461176a7.544471 7.544471 0 0 1 7.725177 7.529411c0 4.276706-3.448471 7.529412-7.725177 7.529412H405.654588a7.544471 7.544471 0 0 1-7.725176-7.529412c0-4.276706 3.448471-7.529412 7.725176-7.529411z"  horiz-adv-x="1027" />

    
    <glyph glyph-name="xinxitiaomu" unicode="&#58994;" d="M920 750.4v-600H369.1l-11.7-11.7-104.5-104.5-104.5 104.5-11.7 11.7H104v600h816m40 40H64v-680h56.1l132.8-132.8 132.8 132.8H960v680zM792 611.3H232v-40h560v40z m0-138H232v-40h560v40zM574.5 335.4H232v-40h342.5v40z"  horiz-adv-x="1024" />

    
    <glyph glyph-name="linyujian" unicode="&#59011;" d="M743.990303 303.142788c0.124121-0.961939 0.279273-1.908364 1.411879-2.234182 0.155152 0.73697 0.387879 1.466182 0.442182 2.210909 0.046545 0.636121-0.108606 1.287758-0.178425 1.939394l-1.675636-1.916121zM1278.867394 683.085576c0.007758 6.94303-2.738424 11.869091-8.184242 15.716848-3.258182 2.304-6.935273 3.599515-10.705455 4.701091-21.604848 6.314667-43.225212 12.567273-64.814545 18.944-35.048727 10.356364-70.074182 20.782545-105.107394 31.193212-38.94303 11.574303-77.862788 23.202909-116.821334 34.699637-7.330909 2.164364-14.421333 5.453576-22.264242 5.461333-77.040485 0.023273-154.08097 0.007758-231.121455 0.054303-4.468364 0-8.750545-0.605091-13.017212-1.923879-13.257697-4.088242-26.554182-8.013576-39.819636-12.06303-35.265939-10.752-70.531879-21.504-105.774546-32.310303-31.829333-9.75903-63.635394-19.595636-95.456969-29.385697-16.996848-5.228606-34.055758-10.255515-50.982788-15.670303-12.838788-4.111515-17.322667-10.589091-17.322667-23.800243-0.015515-180.417939 0-360.835879-0.124121-541.253818-0.007758-7.540364 0.760242-14.30497 7.237818-19.246545 1.349818-1.031758 2.435879-2.56 3.312485-4.057212 13.319758-22.729697 31.697455-40.401455 53.597091-54.846061 17.625212-11.620848 35.669333-22.326303 55.109818-30.657939 16.802909-7.19903 33.660121-14.149818 51.068121-19.820606 34.84703-11.341576 70.361212-19.727515 106.457212-25.956849 47.631515-8.22303 95.627636-12.357818 143.895273-13.273212 55.513212-1.05503 110.770424 2.172121 165.732849 10.449455 48.081455 7.237818 95.26303 17.982061 141.001697 34.637575 34.33503 12.505212 67.382303 27.710061 96.721454 49.780364 18.571636 13.963636 35.777939 29.494303 47.251394 50.276848 0.535273 0.969697 1.272242 2.01697 2.195394 2.552243 6.291394 3.661576 7.936 9.301333 7.928242 16.205576-0.093091 91.430788-0.062061 182.869333-0.06206 274.307878-0.007758 91.756606-0.046545 183.52097 0.069818 275.285334z m-691.006061-634.344728c-14.941091 5.08897-29.533091 9.704727-43.527757 15.957334-26.290424 11.74497-52.177455 24.219152-73.813334 43.768242-7.586909 6.857697-15.592727 13.366303-21.092848 22.256485-1.24897 2.024727-1.954909 3.956364-1.947152 6.376727 0.046545 154.701576 0.038788 309.403152 0.038788 464.104728v3.428848c20.487758-12.815515 40.804848-23.947636 62.425212-32.395636 24.009697-9.386667 48.407273-17.741576 73.557334-23.598546 3.638303-0.845576 4.437333-2.412606 4.437333-5.903515-0.085333-163.04097-0.077576-326.081939-0.077576-489.122909v-4.871758z m219.368728-34.777212c-31.216485 1.093818-62.355394 3.312485-93.323637 7.447273-24.281212 3.234909-48.438303 7.268848-72.339394 12.714667-2.653091 0.605091-4.165818 1.536-3.669333 4.483879 0.131879 0.791273 0.023273 1.629091 0.023273 2.451393V530.276848v6.182788c17.252848-3.180606 34.172121-5.678545 51.130182-7.96703 26.096485-3.529697 52.301576-5.825939 78.568727-7.416242 14.033455-0.853333 28.097939-1.303273 42.146909-1.745455 2.854788-0.085333 4.367515-0.674909 3.847757-3.816727-0.131879-0.791273-0.015515-1.629091-0.015515-2.451394 0-164.38303 0.007758-328.758303-0.023272-493.141333 0-6.407758 1.605818-6.229333-6.345697-5.957819z m9.572848 554.302061c-48.748606 0.884364-97.272242 4.670061-145.477818 12.31903-47.189333 7.493818-93.571879 18.044121-138.154667 35.576243-23.156364 9.099636-45.653333 19.494788-65.078303 35.467636-3.762424 3.095273-7.416242 6.314667-11.07006 9.526303-1.923879 1.683394-1.776485 2.575515 0.930909 3.397818 52.293818 15.895273 104.564364 31.883636 156.834909 47.848728 33.698909 10.294303 67.405576 20.565333 101.096727 30.906181 3.157333 0.969697 6.291394 1.473939 9.603879 1.466182 72.944485-0.038788 145.88897-0.023273 218.833454 0.038788 2.350545 0 4.522667-0.504242 6.710303-1.155879 46.297212-13.785212 92.586667-27.593697 138.883879-41.363394 35.180606-10.46497 70.376727-20.891152 105.572849-31.309575 8.385939-2.482424 16.802909-4.871758 25.685333-7.447273-8.448-10.387394-18.773333-17.105455-29.292606-23.699394-26.391273-16.531394-55.272727-27.267879-84.790303-36.367515-39.703273-12.241455-80.35297-20.19297-121.522424-25.770667-56.025212-7.571394-112.290909-10.46497-168.766061-9.433212z m204.970667-531.106909c0.007758-4.429576-1.109333-6.081939-5.515637-6.927515-46.785939-8.967758-93.959758-14.413576-141.583515-15.879758-11.023515-0.341333-11.023515-0.380121-11.023515 10.736485V266.480485c0 82.424242 0.038788 164.856242-0.108606 247.280485-0.007758 4.522667 1.24897 5.554424 5.608727 5.66303 47.755636 1.225697 95.286303 5.143273 142.514425 12.404364 3.188364 0.488727 7.486061 2.296242 9.316848 0.915394 2.102303-1.590303 0.659394-6.120727 0.659394-9.363394 0.023273-162.071273 0-324.142545 0.131879-486.221576z m204.272485 93.858909c-10.868364-16.733091-26.538667-28.167758-42.775273-38.966303-30.332121-20.161939-63.875879-33.202424-98.358303-44.132849-4.181333-1.326545-8.385939-2.575515-12.606061-3.87103-1.031758 1.908364-0.566303 3.708121-0.566303 5.422546-0.023273 162.885818-0.007758 325.771636-0.131879 488.657454 0 4.305455 1.31103 5.624242 5.383758 6.570667 41.425455 9.642667 81.842424 22.178909 119.978667 41.487515 10.759758 5.445818 20.984242 11.675152 31.77503 18.486303v-5.337212c0-153.072485-0.007758-306.14497 0.069818-459.217455 0-3.467636-0.930909-6.260364-2.769454-9.099636zM768.442182 321.644606c-7.408485 0.395636-12.706909-5.546667-12.730182-13.723151a7457.109333 7457.109333 0 0 1 0-51.021576c0.03103-8.114424 5.469091-14.056727 12.885333-13.568 8.261818 0.54303 13.653333 4.879515 13.606788 13.474909-0.046545 8.502303-0.007758 17.004606-0.007757 25.514667 0 8.502303-0.100848 17.012364 0.03103 25.514666 0.124121 8.96-5.523394 13.366303-13.785212 13.808485zM906.115879 693.178182c-2.52897 2.84703-5.632 4.957091-8.96 6.749091-6.081939 3.273697-12.582788 5.298424-19.277576 6.919757-31.914667 7.71103-63.77503 7.571394-95.550061-0.612848-9.192727-2.366061-18.238061-5.329455-25.204363-12.303515-5.872485-5.872485-5.849212-12.163879-0.054303-18.075152 5.057939-5.158788 11.450182-8.215273 18.160485-10.317576a178.71903 178.71903 0 0 1 55.994181-8.122181 182.264242 182.264242 0 0 1 52.751516 7.043878c8.184242 2.342788 16.104727 5.585455 22.085818 12.086303 4.988121 5.422545 4.949333 11.132121 0.054303 16.632243zM760.769939 665.235394c-7.059394 0.100848-12.722424-5.267394-12.877575-12.606061a557.591273 557.591273 0 0 1 0.007757-24.956121 12.567273 12.567273 0 0 1 12.528485-12.458667c7.059394-0.100848 12.629333 5.259636 12.893091 12.598303 0.147394 4.072727 0.023273 8.153212 0.023273 12.233697 0 4.243394 0.131879 8.486788-0.031031 12.730182-0.279273 7.090424-5.678545 12.357818-12.544 12.458667zM907.054545 665.227636c-7.051636 0.124121-12.753455-5.236364-12.924121-12.559515a557.59903 557.59903 0 0 1 0-24.956121 12.551758 12.551758 0 0 1 12.48194-12.497455c7.059394-0.124121 12.660364 5.236364 12.931878 12.559516 0.147394 4.072727 0.023273 8.153212 0.023273 12.233697 0 4.243394 0.131879 8.486788-0.03103 12.722424-0.256 7.105939-5.616485 12.373333-12.48194 12.497454zM806.749091 646.586182c-7.059394 0.015515-12.590545-5.368242-12.737939-12.753455a627.456 627.456 0 0 1 0-24.467394c0.139636-7.39297 5.632-12.784485 12.691393-12.792242 7.067152-0.015515 12.51297 5.368242 12.745697 12.753454 0.131879 4.072727 0.023273 8.16097 0.023273 12.233697 0 4.080485 0.100848 8.16097-0.023273 12.233697-0.217212 7.385212-5.639758 12.776727-12.699151 12.792243zM862.766545 646.586182c-7.059394 0.062061-12.660364-5.313939-12.807757-12.675879a627.456 627.456 0 0 1-0.007758-24.467394c0.131879-7.424 5.554424-12.815515 12.621576-12.877576 7.067152-0.062061 12.57503 5.313939 12.823273 12.668122 0.139636 4.072727 0.023273 8.16097 0.023273 12.233697s0.093091 8.16097-0.023273 12.233696c-0.209455 7.424-5.562182 12.823273-12.629334 12.885334zM910.778182 321.722182c-7.416242 0.007758-12.699152-5.616485-12.761212-13.754182-0.069818-8.323879-0.015515-16.655515-0.015515-24.979394 0-8.657455-0.046545-17.307152 0.015515-25.956848 0.062061-8.176485 5.290667-13.777455 12.722424-13.785213 7.431758-0.007758 12.730182 5.60097 12.761212 13.746425a6969.793939 6969.793939 0 0 1 0 50.944c-0.03103 8.153212-5.306182 13.777455-12.722424 13.785212z"  horiz-adv-x="1675" />

    
    <glyph glyph-name="xitongrizhi" unicode="&#58889;" d="M864 800h-704a128 128 0 0 1-128-128v-576a128 128 0 0 1 128-128h704a128 128 0 0 1 128 128v576a128 128 0 0 1-128 128z m64-704a64 64 0 0 0-64-64h-704a64 64 0 0 0-64 64v384h832v-384z m0 448h-832v128a64 64 0 0 0 64 64h704a64 64 0 0 0 64-64v-128zM224 672H192a32 32 0 0 1 0-64h32a32 32 0 0 1 0 64zM384 672h-32a32 32 0 0 1 0-64H384a32 32 0 0 1 0 64zM288 320m-32 0a32 32 0 1 1 64 0 32 32 0 1 1-64 0ZM416 288h320a32 32 0 0 1 0 64h-320a32 32 0 0 1 0-64zM288 192m-32 0a32 32 0 1 1 64 0 32 32 0 1 1-64 0ZM416 160h320a32 32 0 0 1 0 64h-320a32 32 0 0 1 0-64z"  horiz-adv-x="1024" />

    
    <glyph glyph-name="shujuleixingguanli" unicode="&#58891;" d="M864 704h-384a128 128 0 0 1-128 128h-192a128 128 0 0 1-128-128v-640a128 128 0 0 1 128-128h704a128 128 0 0 1 128 128V576a128 128 0 0 1-128 128z m-704 64h192a64 64 0 0 0 64-64h-320a64 64 0 0 0 64 64z m768-704a64 64 0 0 0-64-64h-704a64 64 0 0 0-64 64V640h768a64 64 0 0 0 64-64v-512zM416 544h-192v-128a64 64 0 0 1 64-64h128a64 64 0 0 1 64 64v64a64 64 0 0 1-64 64z m0-128h-128v64h128v-64zM416 288h-128a64 64 0 0 1-64-64v-128h192a64 64 0 0 1 64 64v64a64 64 0 0 1-64 64z m0-128h-128v64h128v-64zM544 480v-64a64 64 0 0 1 64-64h128a64 64 0 0 1 64 64v128h-192a64 64 0 0 1-64-64z m192-64h-128v64h128v-64zM736 288h-128a64 64 0 0 1-64-64v-64a64 64 0 0 1 64-64h192v128a64 64 0 0 1-64 64z m0-128h-128v64h128v-64z"  horiz-adv-x="1024" />

    
    <glyph glyph-name="gonggaotixing" unicode="&#59103;" d="M796 605.1L512 792.9 228 605.1H64v-630h896v630H796zM512 732.9l193.3-127.8H318.7L512 732.9z m398-707.8H114v530h796v-530z m-578 235h-60v60h60v-60z m210 0h-60v60h60v-60z m210 0h-60v60h60v-60z"  horiz-adv-x="1024" />

    
    <glyph glyph-name="wenzhangfenlei" unicode="&#59111;" d="M192.000387 213.333262h42.602657A63.999987 63.999987 0 0 0 298.667031 149.11994200000004v-212.906622A64.106653 64.106653 0 0 0 234.603044-128H64.064413A63.999987 63.999987 0 0 0 0.000427-63.78668000000005v212.906622A64.106653 64.106653 0 0 0 64.064413 213.333262H106.667071v165.119966c0 0.917333 0.021333 1.856 0.085333 2.773333A42.773324 42.773324 0 0 0 149.397729 426.666551H469.333662v127.999973h-63.786653A64.063987 64.063987 0 0 0 341.333689 618.879844V831.786467A64.063987 64.063987 0 0 0 405.547009 895.999787h212.906622A64.063987 64.063987 0 0 0 682.666951 831.786467v-212.906623A64.063987 64.063987 0 0 0 618.453631 554.666524H554.666978v-127.999973h319.935933a42.602658 42.602658 0 0 0 42.645325-45.43999c0.064-0.917333 0.085333-1.856 0.085333-2.773333V213.333262h42.602658A63.999987 63.999987 0 0 0 1024.000213 149.11994200000004v-212.906622A64.106653 64.106653 0 0 0 959.936227-128h-170.538631A63.999987 63.999987 0 0 0 725.333609-63.78668000000005v212.906622A64.106653 64.106653 0 0 0 789.397596 213.333262H832.000253v127.999974H554.666978v-127.999974h42.602658A63.999987 63.999987 0 0 0 661.333622 149.11994200000004v-212.906622A64.106653 64.106653 0 0 0 597.269636-128h-170.538632A63.999987 63.999987 0 0 0 362.667018-63.78668000000005v212.906622A64.106653 64.106653 0 0 0 426.731004 213.333262H469.333662v127.999974H192.000387v-127.999974zM426.667004 810.666471v-170.666631h170.666632V810.666471h-170.666632z m21.333329-682.666524v-170.666631h127.999974v170.666631h-127.999974z m362.666591 0v-170.666631h127.999974v170.666631h-127.999974zM85.333742 127.99994700000002v-170.666631h127.999974v170.666631H85.333742z"  horiz-adv-x="1024" />

    
    <glyph glyph-name="neirongfabu" unicode="&#59529;" d="M128 63.95733299999995c0-17.002667 4.906667-20.309333 20.629333-14.016l15.36 6.144c75.733333 30.293333 193.578667 30.293333 269.354667 0l94.506667-37.802666h-31.701334l94.506667 37.802666c75.733333 30.293333 193.578667 30.293333 269.354667 0l15.36-6.144c15.658667-6.272 20.629333-2.901333 20.629333 14.016V640.0426669999999c0 29.738667-24.746667 66.304-52.309333 77.333333l-15.36 6.144c-55.424 22.165333-150.549333 22.186667-205.973334 0l-94.506666-37.802667-15.850667-6.336-15.850667 6.336-94.506666 37.802667c-55.402667 22.165333-150.528 22.186667-205.952 0l-15.36-6.144C152.810667 706.389333 128 669.696 128 640.0426669999999v-576.085334zM164.48 756.992l15.36 6.144c65.621333 26.24 172.117333 26.218667 237.653333 0L512 725.333333l94.506667 37.802667c65.621333 26.24 172.117333 26.218667 237.653333 0l15.36-6.144c43.733333-17.493333 79.146667-69.717333 79.146667-116.949333v-576.085334c0-47.104-35.477333-71.104-79.146667-53.632l-15.36 6.144c-65.621333 26.24-172.117333 26.218667-237.653333 0L512-21.33333300000004l-94.506667 37.802666c-65.621333 26.24-172.117333 26.218667-237.653333 0l-15.36-6.144c-43.733333-17.493333-79.146667 6.4-79.146667 53.632V640.0426669999999C85.333333 687.146667 120.810667 739.52 164.48 756.992zM490.666667 682.602667a21.333333 21.333333 0 1 0 42.666666 0v-511.872a21.333333 21.333333 0 1 0-42.666666 0V682.602667z"  horiz-adv-x="1024" />

    
    <glyph glyph-name="tixingfabu" unicode="&#58907;" d="M940.23712 151.23199999999997c-11.712 14.656-24.96 32.128-39.552 52.48a524.48 524.48 0 0 0-39.04 63.36A479.424 479.424 0 0 0 830.47712 339.20000000000005a205.952 205.952 0 0 0-11.264 67.52c0 36.288-5.76 70.08-17.152 100.096a291.136 291.136 0 0 1-45.12 80.64 272.384 272.384 0 0 1-68.224 60.544 299.648 299.648 0 0 1-45.44 23.296l-24.704 11.264-9.92 2.368c19.392 22.464 31.552 51.328 31.552 83.2a127.872 127.872 0 0 1-255.744 0c0-32.256 12.416-61.44 32.128-83.968-3.84-0.96-7.04-1.856-8.256-2.24a323.584 323.584 0 0 1-77.184-36.352 281.152 281.152 0 0 1-111.168-137.792A278.144 278.144 0 0 1 201.99712 405.76c0-23.808-3.776-46.72-11.136-67.84-8.704-24.896-19.2-48.832-31.168-71.424-11.712-22.4-24.32-43.392-38.592-64.192-15.68-22.72-28.992-43.264-38.592-58.624-25.856-36.48-20.352-73.408-6.4-95.936 18.88-29.888 47.872-47.744 77.632-47.744h697.536c18.56 0 50.752 12.672 58.88 16.96 16.128 8 27.264 20.48 33.6 29.248 9.728 13.184 15.36 29.248 16.448 46.144a82.816 82.816 0 0 1-19.968 58.88zM512.39712 832a64 64 0 1 0-0.064-128.064A64 64 0 0 0 512.39712 832z m380.16-749.056a29.056 29.056 0 0 0-9.92-9.152c-5.248-2.816-23.36-9.024-29.44-9.792H151.05312c-6.336 0-15.04 6.848-21.056 16.512-1.92 3.328-4.032 10.432 5.376 23.872 10.24 16.768 23.168 36.672 38.272 58.88 15.936 23.552 29.952 47.104 43.072 72.064 13.568 25.856 25.472 53.44 35.328 81.984 9.92 28.8 14.976 59.52 14.976 91.456a219.2 219.2 0 0 0 99.328 186.88c20.352 12.992 40.96 22.848 59.52 28.736l36.544 10.048 0.64 0.128-0.128-0.064C478.34912 638.0799999999999 494.47712 640 511.18112 640c43.648 0 76.544-12.8 79.424-13.824 24.96-7.68 45.184-16.768 63.808-28.608 19.712-12.352 37.248-28.032 51.776-46.336 14.656-18.56 26.432-39.872 35.008-63.424 8.704-23.04 13.056-49.28 13.056-78.08 0-31.04 5.056-61.568 14.912-90.624 9.792-29.056 21.824-57.28 35.712-83.328 13.888-26.496 28.736-50.88 44.16-72.32 15.36-21.76 29.44-40.512 42.304-56.704 3.648-4.352 5.312-8.512 5.056-12.672a20.672 20.672 0 0 0-3.84-11.136zM672.39712-64a32 32 0 1 0 0-64h-320a32 32 0 0 0 0 64h320z"  horiz-adv-x="1024" />

    
    <glyph glyph-name="caidanguanli" unicode="&#58897;" d="M939.903382 896H128.618357C56.888889 896 0 839.111111 0 767.3816429999999v-576.309179c0-71.729469 56.888889-128.618357 128.618357-128.618358H939.903382c71.729469 0 128.618357 56.888889 128.618357 128.618358V767.3816429999999C1068.521739 839.111111 1011.63285 896 939.903382 896z m56.888889-704.927536c0-32.154589-24.7343-56.888889-56.888889-56.888889H128.618357c-32.154589 0-56.888889 24.7343-56.888888 56.888889V767.3816429999999c0 32.154589 24.7343 56.888889 56.888888 56.888888H939.903382c32.154589 0 56.888889-24.7343 56.888889-56.888888v-576.309179zM905.275362-53.797101h-202.821256v19.787439c0 17.31401-14.84058 32.154589-32.154589 32.15459H378.434783c-17.31401 0-32.154589-14.84058-32.15459-32.15459v-19.787439H143.458937c-19.78744 0-37.101449-17.31401-37.101449-37.10145s17.31401-37.101449 37.101449-37.101449h761.816425c19.78744 0 37.101449 17.31401 37.10145 37.101449s-17.31401 37.101449-37.10145 37.10145zM707.400966 695.6521740000001h-34.628019v12.36715c0 29.681159-24.7343 54.415459-54.415459 54.415459s-54.415459-24.7343-54.415459-54.415459v-12.36715h-81.623188v12.36715c0 29.681159-24.7343 54.415459-54.415459 54.415459S371.014493 737.700483 371.014493 708.019324v-12.36715h-27.20773c-54.415459 0-98.937198-44.521739-98.937198-98.937198V277.642512c0-54.415459 44.521739-98.937198 98.937198-98.937198h363.594203c54.415459 0 98.937198 44.521739 98.937198 98.937198V596.714976c-2.47343 54.415459-46.995169 98.937198-98.937198 98.937198zM343.806763 653.603865h69.256039V708.019324c0 7.42029 4.94686 12.36715 12.36715 12.367149s12.36715-4.94686 12.367149-12.367149v-54.415459h165.719807V708.019324c0 7.42029 4.94686 12.36715 12.36715 12.367149s12.36715-4.94686 12.36715-12.367149v-54.415459h76.676328c32.154589 0 56.888889-24.7343 56.888889-56.888889v-44.521739H286.917874v44.521739c0 32.154589 24.7343 56.888889 56.888889 56.888889z m363.594203-430.376812H343.806763c-32.154589 0-56.888889 24.7343-56.888889 56.888889v232.502415h477.371981v-232.502415c-2.47343-32.154589-27.207729-56.888889-56.888889-56.888889zM608.463768 581.8743959999999h116.251208c12.36715 0 19.78744 9.89372 19.787439 19.78744s-9.89372 22.26087-22.260869 22.260869h-116.251208c-12.36715 0-19.78744-9.89372-19.787439-19.787439s9.89372-22.26087 22.260869-22.26087zM702.454106 477.990338h-346.280193c-12.36715 0-19.78744-9.89372-19.78744-19.787439s9.89372-19.78744 19.78744-19.78744h346.280193c12.36715 0 19.78744 9.89372 19.78744 19.78744s-7.42029 19.78744-19.78744 19.787439zM702.454106 396.36715h-346.280193c-12.36715 0-19.78744-9.89372-19.78744-19.78744s9.89372-19.78744 19.78744-19.787439h346.280193c12.36715 0 19.78744 9.89372 19.78744 19.787439s-7.42029 19.78744-19.78744 19.78744zM546.628019 314.743961h-190.454106c-12.36715 0-19.78744-9.89372-19.78744-19.787439s9.89372-19.78744 19.78744-19.78744h190.454106c12.36715 0 19.78744 9.89372 19.78744 19.78744s-7.42029 19.78744-19.78744 19.787439z"  horiz-adv-x="1068" />

    
    <glyph glyph-name="mobanguanli" unicode="&#58999;" d="M172.872 532.267h740.079l-49.439-49.438V726.81l49.439-49.439H172.872l49.439 49.439v-243.982l-49.439 49.438z m0-49.438V726.81h740.079v-243.982H172.872zM894.774 378.49300000000005h24.72v49.439H474.547v-49.439h24.72zM894.774 270.629h24.72v49.438H474.547v-49.438h24.72zM894.774 162.764h24.72v49.439H474.547v-49.439h24.72zM894.774 54.89999999999998h24.72v49.438H474.547v-49.439h24.72zM172.872 93.10000000000002h246.693l-49.438-49.44V434.033l49.438-49.438H172.872l49.439 49.438v-390.371l-49.439 49.438z m0-49.439V434.033h246.693v-390.372H172.872z"  horiz-adv-x="1093" />

    
    <glyph glyph-name="wenbenfabu" unicode="&#58885;" d="M982.951928-127.92136400000004H39.318077a39.318077 39.318077 0 0 0-39.318077 39.318077v943.633851a39.318077 39.318077 0 0 0 39.318077 39.318077h466.784211a39.318077 39.318077 0 0 0 0-78.636154H78.636154v-864.997697h864.997696V380.697282a39.318077 39.318077 0 0 0 78.636155 0v-469.300569a39.318077 39.318077 0 0 0-39.318077-39.318077zM511.135002 738.7276919999999h-314.544616a39.318077 39.318077 0 0 1 0-78.636155h314.544616a39.318077 39.318077 0 0 1 0 78.636155zM353.862694 738.7276919999999a39.318077 39.318077 0 0 1-39.318077-39.318078v-471.816925a39.318077 39.318077 0 0 1 78.636154 0v471.816925a39.318077 39.318077 0 0 1-39.318077 39.318078zM904.315773 738.7276919999999h-235.908462a39.318077 39.318077 0 0 1 0-78.636155h235.908462a39.318077 39.318077 0 0 1 0 78.636155zM904.315773 581.455383h-235.908462a39.318077 39.318077 0 0 1 0-78.636154h235.908462a39.318077 39.318077 0 0 1 0 78.636154zM825.679619 424.183075h-157.272308a39.318077 39.318077 0 0 1 0-78.636154h157.272308a39.318077 39.318077 0 0 1 0 78.636154zM825.679619 266.91076599999997h-157.272308a39.318077 39.318077 0 0 1 0-78.636154h157.272308a39.318077 39.318077 0 0 1 0 78.636154zM825.679619 109.63845800000001h-629.089233a39.318077 39.318077 0 0 1 0-78.636154h629.089233a39.318077 39.318077 0 0 1 0 78.636154z"  horiz-adv-x="1024" />

    
    <glyph glyph-name="huanyingye" unicode="&#58941;" d="M949.333333 821.333333C902.4 866.133333 838.4 896 768 896H256C185.6 896 121.6 866.133333 74.666667 821.333333 29.866667 774.4 0 710.4 0 640v-153.6c0-14.933333 10.666667-25.6 25.6-25.6s25.6 10.666667 25.6 25.6V640c0 55.466667 23.466667 106.666667 59.733333 145.066667C149.333333 821.333333 200.533333 844.8 256 844.8h512c55.466667 0 106.666667-23.466667 145.066667-59.733333 36.266667-36.266667 59.733333-87.466667 59.733333-145.066667v-153.6c0-14.933333 10.666667-25.6 25.6-25.6s25.6 10.666667 25.6 25.6V640c0 70.4-29.866667 134.4-74.666667 181.333333zM998.4 332.79999999999995c-14.933333 0-25.6-10.666667-25.6-25.6V128c0-55.466667-23.466667-106.666667-59.733333-145.066667-36.266667-36.266667-87.466667-59.733333-145.066667-59.733333H256c-55.466667 0-106.666667 23.466667-145.066667 59.733333C74.666667 21.33333300000004 51.2 72.53333299999997 51.2 128v179.2c0 14.933333-10.666667 25.6-25.6 25.6S0 322.133333 0 307.20000000000005V128c0-70.4 29.866667-134.4 74.666667-181.333333C121.6-98.133333 185.6-128 256-128h512c70.4 0 134.4 29.866667 181.333333 74.666667 46.933333 46.933333 74.666667 110.933333 74.666667 181.333333v179.2c0 14.933333-10.666667 25.6-25.6 25.6zM409.6 437.333333c-27.733333 0-55.466667-8.533333-76.8-25.6v153.6c0 14.933333-10.666667 25.6-25.6 25.6s-25.6-10.666667-25.6-25.6v-358.4c0-14.933333 10.666667-25.6 25.6-25.6s25.6 10.666667 25.6 25.6v102.4c0 21.333333 8.533333 38.4 23.466667 53.333334 14.933333 14.933333 32 23.466667 53.333333 23.466666s40.533333-8.533333 53.333333-23.466666c14.933333-14.933333 23.466667-34.133333 23.466667-53.333334v-104.533333c0-14.933333 10.666667-25.6 25.6-25.6s25.6 10.666667 25.6 25.6v104.533333c0 36.266667-14.933333 68.266667-38.4 89.6-21.333333 23.466667-53.333333 38.4-89.6 38.4zM716.8 437.333333c-14.933333 0-25.6-10.666667-25.6-25.6v-204.8c0-14.933333 10.666667-25.6 25.6-25.6s25.6 10.666667 25.6 25.6v204.8c0 12.8-10.666667 25.6-25.6 25.6zM716.8 590.933333c-14.933333 0-25.6-10.666667-25.6-25.6v-25.6c0-14.933333 10.666667-25.6 25.6-25.6s25.6 10.666667 25.6 25.6v25.6c0 12.8-10.666667 25.6-25.6 25.6z"  horiz-adv-x="1024" />

    
    </font>
</defs>
</svg>
